<svg viewBox="0 0 300 300" xmlns="http://www.w3.org/2000/svg">
  <path d="M65.124,37.505L66.863,39.076L68.162,40.234L68.725,40.601L69.044,40.707L69.779,40.636L70.685,40.482L71.102,40.317L71.592,39.951L72.376,39.443L73.013,39.171L73.258,39.135L73.503,39.218L74.042,39.525L74.336,40.092L74.066,40.742L74.115,41.144L74.679,41.12L75.12,40.447L75.438,39.915L76.099,39.49L76.736,38.876L77.177,38.285L77.716,37.942L78.5,37.528L79.137,37.269L79.725,37.292L80.166,37.02L80.73,36.5L81.122,36.087L81.391,35.945L81.93,35.98L82.616,35.921L83.302,35.413L83.915,34.81L84.233,33.77L84.454,32.86L84.65,32.683L84.87,32.529L85.115,32.435L85.752,32.376L86.854,31.891L87.614,31.394L88.349,31.288L88.569,31.158L88.814,30.697L88.961,29.893L88.863,29.408L87.516,29.254L86.658,29.254L85.213,29.136L84.527,28.935L84.38,28.793L84.356,28.64L84.503,28.285L84.625,27.634L84.429,26.759L83.719,25.363L83.204,24.003L83.131,23.056L83.155,22.05L83.18,21.399L82.812,20.89L80.828,19.268L80.142,18.498L79.921,17.977L79.137,16.994L79.333,16.698L79.774,16.71L80.166,16.97L80.509,17.504L80.779,17.634L81.122,17.634L82.959,17.622L83.376,17.717L83.645,17.906L83.866,18.131L84.209,18.759L84.552,19.067L85.287,19.055L86.413,19.043L87.05,18.984L87.442,19.162L87.908,19.304L88.912,18.972L89.206,18.972L89.5,19.114L90.578,20.251L91.191,20.724L91.705,21.352L92.465,21.352L93.102,20.819L93.273,18.996L93.469,18.463L93.788,18.309L94.155,18.297L94.596,18.013L95.086,17.634L95.502,17.515L97.266,17.918L97.756,17.717L99.52,17.243L101.333,16.615L101.848,15.845L102.607,15.632L103.195,15.051L103.685,15.122L104.42,15.146L104.861,15.039L105.082,14.933L105.351,14.66L105.743,13.901L106.257,13.605L106.87,13.297L107.286,12.941L107.654,12.491L107.801,12.099L107.801,11.791L107.605,11.198L107.335,10.641L107.066,10.451L106.87,10.38L107.482,10.249L107.997,10.439L108.781,10.475L109.124,10.32L109.638,10.391L110.275,10L110.692,10.13L110.961,10.13L111.206,10.427L111.378,10.771L111.99,11.186L111.917,11.827L111.819,12.384L111.745,13.036L111.696,13.534L111.451,14.032L111.059,14.506L110.961,14.696L110.912,14.944L111.157,15.098L111.598,15.146L112.162,15.158L112.554,15.312L113.044,15.335L113.656,15.738L113.926,15.987L113.95,16.177L113.779,16.627L113.705,17.042L113.852,17.302L114.024,17.492L114.489,18.427L114.734,18.747L114.93,18.854L114.979,19.031L114.808,19.375L114.612,19.813L114.171,20.275L114.097,20.63L113.754,20.855L112.897,21.399L113.044,22.251L113.093,22.689L113.068,23.021L112.774,23.47L112.284,24.807L112.113,25.47L111.941,26.996L111.966,27.516L112.186,28.202L112.676,29.739L112.946,29.988L113.583,30.342L113.656,31.383L113.607,32.47L113.583,32.896L113.681,33.073L113.975,33.156L114.171,33.286L114.195,33.605L114.195,33.936L114.661,34.137L115.077,34.255L115.469,34.716L116.155,35.437L116.424,35.567L116.571,35.862L117.159,36.465L118.041,36.678L118.948,36.949L119.291,37.328L119.658,37.635L119.928,37.647L120.173,37.599L120.565,37.339L120.859,37.103L121.398,37.127L122.035,37.079L122.157,36.89L122.206,36.654L122.084,36.04L122.304,35.85L122.843,35.744L122.941,35.413L123.064,35.236L123.211,35.023L123.382,34.988L123.603,35.106L123.97,35.189L124.338,35.295L124.558,35.508L124.901,35.52L125.293,35.484L125.44,35.342L125.562,35.106L125.636,34.61L125.881,34.598L126.395,34.48L126.91,34.255L127.62,34.22L128.282,34.231L128.625,34.078L128.919,33.759L129.531,32.837L129.825,32.624L130.168,32.458L130.462,32.494L131.05,32.34L131.516,32.116L131.712,32.175L132.079,32.648L132.275,32.754L132.545,32.778L133.451,33.026L133.917,32.943L134.431,32.801L134.946,32.742L135.313,32.848L135.558,32.707L135.852,32.612L136.048,32.671L136.513,32.73L137.591,32.99L139.012,33.286L139.38,33.191L139.625,32.978L139.674,32.376L139.723,31.95L139.404,31.56L139.012,31.134L138.645,30.602L138.204,30.449L138.253,30.177L138.547,29.893L138.841,29.727L138.988,29.538L139.184,28.829L139.306,28.699L139.429,28.663L139.576,28.699L139.87,28.876L140.972,29.444L141.462,29.361L143.324,29.207L143.594,28.888L143.986,28.805L144.672,28.486L144.941,28.462L145.161,28.545L145.455,28.474L145.896,28.178L146.092,28.143L146.166,28.474L146.435,28.829L146.778,29.148L146.95,29.219L147.538,29.113L147.832,29.207L147.954,29.503L148.003,29.763L148.248,29.988L148.542,29.988L148.714,30.082L149.008,30.212L149.253,30.543L149.792,30.803L150.747,31.158L151.188,31.17L151.605,31.276L151.874,31.394L152.144,31.193L153.124,30.626L153.589,30.319L153.908,30.082L154.153,29.858L154.324,29.798L154.447,29.928L154.545,30.118L154.912,30.224L155.72,30.425L156.088,30.484L156.602,30.307L157.068,30.011L157.288,29.905L157.607,30.2L157.827,30.626L157.999,30.815L158.317,30.78L159.003,30.839L159.493,30.981L159.787,30.969L160.204,30.768L160.424,30.401L161.037,30.059L161.6,29.739L161.919,29.314L162.384,28.616L162.556,28.308L162.58,27.8L163.266,26.333L163.511,26.061L163.658,25.588L163.928,25.056L163.928,24.594L164.124,24.168L164.516,23.79L164.785,23.553L165.25,22.914L165.569,22.322L166.353,20.997L166.426,20.618L166.745,20.393L166.843,20.109L167.186,19.754L167.529,19.469L167.676,19.067L167.945,18.629L168.509,18.309L168.729,18.167L169.366,16.994L169.44,16.461L170.028,16.437L170.934,17.053L171.669,17.942L172.649,20.819L172.796,23.482L173.213,24.878L174.34,27.776L174.413,28.308L174.585,28.959L174.952,29.645L175.344,30.78L175.368,30.993L175.099,31.3L175.491,31.324L175.834,31.501L176.054,32.222L176.324,32.707L176.838,33.369L177.892,33.593L178.7,33.676L179.607,34.042L180.268,34.527L180.783,36.158L180.611,37.186L180.66,37.907L180.391,38.19L179.656,38.663L179.484,38.923L177.965,40.14L177.622,40.719L176.814,41.487L176.005,42.963L174.83,44.31L174.413,44.653L173.776,44.735L173.384,44.936L172.478,46.035L171.228,46.401L171.13,47.039L170.42,48.504L169.783,49.296L169.391,49.567L168.386,51.009L168.264,51.647L168.264,52.757L167.578,53.431L166.892,53.868L166.794,54.813L166.5,55.132L166.23,55.345L164.81,55.097L162.58,56.137L161.845,56.385L164.246,56.444L165.03,56.988L166.72,56.622L168.754,55.322L169.538,55.038L171.13,54.152L171.792,53.561L172.968,52.852L173.213,52.545L173.874,52.202L174.242,52.627L174.266,52.899L173.727,53.419L173.874,53.75L174.217,54.175L174.34,54.754L174.389,55.192L174.609,55.972L175.344,57.012L175.368,57.366L175.27,57.815L175.613,58.193L175.981,58.418L177.23,59.541L178.186,58.914L178.798,58.737L179.166,58.465L179.974,58.3L180.636,58.56L181.885,58.938L182.792,58.536L184.629,57.614L184.066,59.245L183.649,60.747L183.331,61.35L183.012,62.981L182.694,63.419L182.449,63.916L182.865,63.738L183.208,63.502L183.649,62.875L183.992,61.787L185.339,58.867L185.731,58.607L186.834,58.276L188.745,55.948L189.504,55.96L189.97,56.492L190.435,56.811L190.533,56.172L191.195,55.912L190.509,55.593L190.386,55.31L190.337,54.837L190.803,54.187L190.509,53.62L191.489,52.899L191.415,52.367L191.758,51.919L192.199,51.458L192.714,51.233L192.787,50.843L193.106,50.678L193.351,50.631L193.841,51.068L194.38,50.548L194.894,50.347L195.114,50.43L195.408,50.666L195.702,50.761L195.947,50.713L196.584,50.383L197.172,50.926L197.54,51.044L197.442,50.737L197.246,50.465L197.393,50.229L197.662,50.087L198.544,50.217L199.01,50.453L199.524,50.902L200.21,50.938L200.774,50.891L201.117,51.139L201.68,51.127L201.95,51.517L202.807,52.06L202.979,52.427L203.665,52.616L204.326,52.84L205.012,52.899L205.698,52.84L205.722,53.313L206.237,53.443L206.874,53.336L207.388,53.904L208.687,54.341L209.618,55.002L210.206,54.884L210.867,55.062L211.602,56.492L211.749,57.52L212.068,57.378L212.362,56.917L212.754,56.078L213.464,55.806L213.807,56.125L214.542,56.645L215.154,57.201L215.424,57.567L215.889,57.626L215.497,58.075L215.889,58.028L216.355,57.709L216.771,58.359L217.09,59.068L217.139,59.801L216.845,60.215L216.6,60.475L216.306,60.995L215.987,61.078L215.644,61.243L216.036,61.622L216.281,61.976L216.869,61.007L217.261,60.735L217.825,60.581L218.143,61.279L218.192,61.929L217.261,62.201L217.261,62.721L216.967,63.005L216.796,63.348L216.649,64.046L216.453,64.637L215.889,67.216L215.889,67.642L216.551,67.192L217.825,65.867L218.217,64.472L218.707,63.088L219.246,62.65L219.589,62.65L220.079,62.804L220.103,63.253L220.03,63.514L219.491,64.2L219.27,64.578L219.491,64.957L220.716,63.809L221.255,63.419L221.72,63.49L222.651,62.97L224.513,62.863L224.636,62.26L225.027,62L226.032,62.071L228.041,62.603L228.751,63.041L229.805,63.454L230.368,63.939L232.72,64.838L234.411,64.933L235.243,64.519L236.297,64.945L236.86,65.43L237.938,65.678L239.041,65.82L239.898,65.477L242.054,65.359L244.798,64.862L246.415,64.98L248.252,65.311L249.575,66.151L250.678,66.636L251.339,67.109L252.417,67.595L254.72,68.908L255.528,69.666L256.949,70.707L258.395,71.145L259.179,72.223L259.791,72.72L261.286,74.544L263.025,75.823L264.177,77.115L266.381,77.933L267.239,79.296L268.733,79.462L269.37,79.664L270.154,80.245L271.232,80.565L272.604,80.47L274.148,80.542L275.372,80.269L278.312,80.779L278.778,81.028L279.366,81.609L280.444,83.769L281.081,86.167L281.399,87.997L282.134,89.423L282.526,92.111L282.869,92.955L282.894,93.598L283.188,93.753L283.359,95.563L283.286,96.289L283.016,97.242L282.992,97.66L283.041,97.934L282.918,98.327L282.869,98.709L283.163,99.567L283.163,100.247L282.796,101.082L282.281,103.243L280.983,106.852L279.733,108.921L277.994,111.053L276.842,112.167L276.401,112.287L275.985,112.059L276.279,112.659L276.009,113.174L274.858,114.746L273.731,115.778L272.531,117.579L272.433,117.615L270.914,118.312L270.007,118.877L268.856,119.899L267.802,121.523L267.582,121.74L267.19,121.62L267.19,122.451L266.283,123.752L266.014,123.944L266.014,123.583L266.185,123.294L266.259,122.993L266.234,122.643L265.989,122.896L265.45,123.884L265.622,124.595L265.23,125.681L263.76,128.783L261.923,131.407L261.506,132.206L259.987,133.974L258.885,134.822L258.591,134.834L258.223,134.762L258.052,133.404L257.17,132.581L256.925,132.436L256.557,133.307L256.263,133.55L255.822,133.598L256.288,133.974L256.435,134.41L255.969,135.295L255.945,136.095L255.112,136.969L254.622,137.613L254.377,138.426L254.206,139.18L254.597,138.973L254.769,139.131L254.891,139.362L254.818,139.715L254.548,140.371L254.597,142.002L254.5,142.367L254.769,142.769L255.063,142.087L255.21,142.282L254.426,146.66L254.744,148.639L254.842,150.878L255.21,153.072L255.602,155.035L255.626,155.195L255.087,157.469L254.402,159.722L253.985,161.571L253.716,163.559L253.446,164.523L253.348,165.501L253.667,167.829L253.765,168.263L252.932,169.305L252.025,169.814L251.511,170.311L250.408,172.188L249.796,174.977L249.771,176.449L250.065,179.562L249.845,180.839L249.502,181.679L249.085,182.243L248.007,182.908L247.052,184.554L246.635,186.277L245.974,186.906L245.851,187.864L245.337,188.911L243.965,190.477L243.083,190.932L242.642,191.362L242.373,192.273L241.515,193.78L240.903,195.733L241.05,196.407L241.074,196.508L241.295,198.773L241.221,199.358L240.388,199.983L237.252,201.144L236.419,201.642L234.533,203.636L234.435,204.096L234.509,204.775L234.802,205.159L234.484,205.582L234.117,206.339L233.578,206.288L230.466,206.288L228.776,206.531L227.894,206.48L227.502,206.301L227.061,206.006L226.914,205.621L227.159,205.031L227.012,204.685L226.546,204.698L226.056,204.865L225.958,205.211L225.983,205.467L226.179,205.826L226.277,206.275L226.081,206.66L225.101,206.711L223.974,207.071L222.602,207.225L221.5,207.481L220.985,207.148L221.5,206.981L222.21,207.071L222.994,206.801L222.823,206.48L221.72,206.07L220.471,206.313L219.785,206.814L218.29,206.762L216.453,207.135L216.159,207.52L216.208,208.252L216.575,208.419L216.918,208.754L216.575,209.062L216.257,209.204L214.322,209.551L212.533,210.994L211.774,211.175L211.112,211.806L211.039,212.348L210.843,212.671L210.402,212.697L209.471,212.4L208.246,212.387L207.388,212.619L202.905,214.972L201.288,215.905L199.451,217.824L196.364,219.981L194.723,221.27L194.429,221.609L194.159,221.622L193.645,221.896L193.865,222.118L194.208,222.144L194.061,222.888L193.424,223.41L192.199,224.756L191.93,224.665L192.322,223.959L191.709,223.932L190.827,223.671L190.46,223.959L190.68,224.665L190.337,224.952L189.749,224.992L189.186,224.913L188.598,224.403L188.867,225.319L190.117,225.554L190.656,225.764L190.852,226.117L189.872,227.769L189.039,227.993L188.965,228.216L189.406,228.216L189.651,228.675L189.357,230.53L188.965,230.872L188.72,230.885L188.475,231.201L188.818,231.808L189.137,232.243L189.088,233.1L188.965,233.814L188.965,234.501L189.382,235.838L189.529,237.216L189.7,237.707L189.798,238.265L189.529,238.783L189.676,239.621L189.21,241.045L189.455,243.1L189.357,245.026L189.161,246.044L188.867,246.835L188.157,247.856L188.132,248.891L186.613,249.847L184.923,251.181L183.38,252.775L181.689,255.022L179.729,258.445L177.941,263.362L175.76,267.097L174.879,268.448L173.703,269.953L172.135,271.724L170.028,273.499L167.725,275.083L166.892,275.793L166.083,276.811L165.887,276.393L166.059,275.71L165.961,275.195L165.936,274.527L166.402,274.402L167.088,274.819L167.431,274.541L167.7,274.249L168.533,274.082L170.126,272.347L171.302,271.696L171.988,270.602L172.086,270.022L172.061,268.848L172.453,268.544L173.311,268.655L173.482,268.324L173.409,267.951L173.556,267.139L174.732,266.423L175.27,265.557L175.099,263.362L175.295,263.266L175.785,263.608L176.005,263.457L176.25,262.499L176.128,262.006L175.564,261.87L173.629,262.951L172.992,262.91L172.894,262.061L171.939,261.665L171.571,260.954L171.473,260.476L171.13,260.285L171.155,261.118L171.253,261.924L172.086,262.869L171.89,263.252L171.473,263.69L171.204,264.664L171.228,265.928L171.008,265.543L170.714,265.323L170.591,266.684L170.028,267.207L169.856,267.731L170.003,268.324L169.709,268.737L168.288,269.842L166.867,270.602L166.549,270.962L166.402,271.807L166.181,272.68L165.544,273.443L165.03,274.972L165.054,275.626L165.226,276.588L165.495,277.23L165.054,277.662L164.491,278.487L164.026,279.424L162.899,282.946L161.919,285.073L161.159,286.118L160.081,287.221L157.019,290L156.847,289.957L156.406,289.73L156.014,289.475L155.941,289.29L155.892,289.02L155.941,288.028L155.941,285.341L156.063,284.833L156.259,284.509L156.872,284.044L157.435,283.368L158.097,282.496L158.709,281.822L158.489,281.358L157.974,280.923L157.092,280.559L156.21,279.928L155.451,279.13L155.108,278.291L154.79,277.383L154.471,276.672L154.373,276.337L154.079,276.211L153.589,275.835L153.295,275.501L152.854,275.306L152.07,275.097L151.237,274.722L150.233,273.846L149.498,272.86L149.13,272.222L148.738,271.765L146.656,271.017L145.7,270.118L145.333,270.395L144.77,270.132L144.206,269.69L144.035,269.372L143.814,269.027L143.594,268.641L143.447,268.268L142.883,267.621L142.148,266.918L141.83,266.726L141.683,266.781L141.511,267.042L141.413,267.304L141.144,267.483L140.801,267.8L140.433,268.199L139.992,268.461L139.453,268.544L139.11,268.53L139.037,268.379L139.012,267.841L139.135,266.616L138.841,266.134L138.424,265.639L137.934,264.952L136.366,263.526L134.235,261.473L133.476,260.845L132.765,260.804L132.104,260.872L131.516,261.145L131.05,262.088L130.879,262.239L129.727,262.212L128.576,262.061L128.184,261.487L128.502,261.104L129.58,260.271L130.168,259.535L130.291,258.881L130.805,258.295L131.736,257.778L132.741,256.827L133.892,255.442L134.578,254.425L134.799,253.762L135.264,253.261L135.901,252.91L136.464,252.167L136.954,251.033L137.591,250.143L138.449,249.483L138.914,248.931L139.012,248.501L139.233,248.219L139.6,248.098L139.796,247.869L139.772,247.533L139.894,247.305L140.09,247.171L140.458,247.225L140.972,247.426L141.266,247.386L141.364,247.104L141.242,246.782L140.874,246.42L140.997,246.017L141.977,245.374L142.687,245.133L143.153,244.731L143.594,244.103L144.28,243.661L145.259,243.421L145.504,243.18L145.48,242.873L145.676,242.659L146.239,242.499L146.558,242.206L146.607,241.765L146.778,241.352L147.097,240.979L147.464,240.846L147.856,240.939L148.224,240.806L148.567,240.419L148.983,240.246L149.449,240.273L149.694,240.193L150.527,240.007L150.968,239.687L151.36,238.982L151.678,238.717L151.972,238.876L152.487,238.637L153.197,237.999L153.32,237.986L153.859,237.694L154.398,236.606L154.667,235.877L154.594,235.282L154.422,234.858L154.496,234.223L154.667,232.533L154.716,231.834L155.01,231.346L154.985,230.872L154.471,229.793L153.957,228.859L153.663,227.271L153.491,226.668L153.05,226.497L152.658,225.973L152.168,225.934L151.948,225.725L151.703,225.567L151.335,225.607L151.041,225.921L150.478,225.934L150.135,226.052L149.718,226.327L149.326,226.209L149.081,225.96L148.567,225.96L148.591,224.887L149.522,223.279L149.767,222.535L149.669,222.118L149.939,220.632L150.625,218.084L150.845,216.436L150.6,215.645L150.576,215.102L150.943,214.636L151.09,214.493L150.233,213.937L149.743,213.42L149.155,213.046L148.493,212.749L148.175,212.878L147.832,213.046L147.195,213.317L146.435,213.782L146.068,213.963L145.382,214.131L144.623,214.274L143.986,214.183L143.447,214.08L143.104,213.782L142.932,213.149L142.932,212.607L142.81,211.819L142.418,211.368L142.271,211.033L142.246,210.607L142.295,210.144L142.418,209.809L142.344,209.384L142.173,209.088L142.222,208.574L142.124,207.867L141.854,207.43L141.707,206.916L141.707,206.403L141.511,205.89L141.487,205.326L141.683,204.814L141.732,204.301L141.536,203.93L141.144,203.713L140.85,203.124L140.825,202.37L140.507,201.961L140.164,201.616L139.772,201.616L139.184,201.425L138.669,201.45L137.836,201.425L137.469,201.31L137.248,201.042L136.734,200.672L136.44,200.047L136.097,199.919L135.582,200.11L135.386,200.353L135.19,200.697L134.823,201.08L134.358,201.067L133.868,201.284L133.378,201.31L132.765,201.348L132.128,201.157L131.369,200.94L130.707,200.799L130.07,200.94L129.654,200.812L129.09,200.748L128.453,200.697L127.963,200.302L127.424,200.085L127.13,200.161L126.738,200.404L126.346,200.353L125.832,200.161L125.636,199.703L125.66,199.409L125.783,199.116L125.979,198.709L125.881,198.263L125.905,197.881L126.003,197.538L126.101,197.157L126.028,196.788L126.003,196.407L125.954,196.038L125.905,195.657L126.175,195.099L126.395,194.642L126.248,194.249L126.297,193.983L126.469,193.552L126.714,193.02L126.689,192.032L126.469,191.45L126.248,191.298L126.199,191.121L126.322,190.894L126.199,190.654L126.15,190.414L126.273,190.211L126.101,189.795L125.783,189.668L125.66,189.555L125.562,189.088L125.464,188.57L125.513,188.154L125.342,187.801L125.121,187.587L124.901,187.196L124.681,186.906L124.583,186.504L124.436,185.975L124.901,185.874L125.073,185.585L125.391,185.182L125.807,185.082L126.297,184.931L126.469,184.629L125.317,183.574L124.632,182.933L125.048,182.068L125.709,180.614L126.371,179.211L126.885,178.148L127.008,177.948L127.449,177.873L127.375,177.324L127.351,176.961L127.008,176.949L127.4,175.638L127.988,173.793L128.429,172.387L128.576,172.15L128.894,172.088L128.968,171.927L128.576,171.69L128.331,171.255L127.841,170.013L127.032,168.04L126.959,167.333L126.665,166.9L126.175,167.048L125.587,166.9L124.117,165.835L123.162,165.253L122.843,164.919L122.696,163.819L122.402,162.62L122.28,161.127L122.329,160.757L123.137,159.636L123.137,159.057L123.211,158.564L123.186,158.17L122.966,158.158L122.647,158.33L122.157,158.466L121.863,158.478L119.021,158.367L115.763,158.244L113.068,158.146L110.716,158.059L110.643,157.087L110.52,155.453L110.422,154.299L110.275,152.471L109.32,151.331L108.315,150.095L107.948,149.789L109.173,149.74L110.055,149.715L109.883,146.403L109.614,146.061L109.369,145L109.222,144.402L108.781,143.902L108.683,143.354L108.756,142.988L109.001,142.757L109.173,142.197L109.05,141.625L108.781,141.101L108.462,140.59L107.874,140.274L106.992,139.715L105.694,138.985L104.592,138.487L104.224,138.548L102.289,138.742L101.627,138.852L101.186,138.73L99.741,138.742L99.153,138.354L98.687,137.904L97.658,136.751L97.511,136.18L97.119,135.998L96.507,136.071L95.894,135.986L94.719,135.513L93.641,135.028L93.102,135.04L92.612,134.737L91.779,133.998L91.387,133.707L91.215,133.32L91.044,132.75L90.701,132.629L90.26,132.738L89.794,133.029L89.133,132.835L88.324,132.302L87.81,131.903L87.516,131.709L86.805,131.419L86.144,131.358L85.115,131.782L84.282,131.613L82.959,131.455L81.832,131.153L81.416,130.367L81.195,129.835L80.534,129.508L79.995,129.109L79.358,128.505L79.039,128.3L78.476,128.131L77.937,127.925L77.888,127.539L77.692,127.032L77.643,126.911L77.275,126.296L77.104,126.248L76.908,126.368L76.785,126.465L76.638,126.344L76.589,126.079L76.687,125.632L76.491,125.174L75.977,124.692L75.707,124.197L75.683,123.679L75.56,123.33L75.364,123.161L75.242,122.86L75.218,122.426L75.364,121.909L75.683,121.319L75.609,120.404L75.144,119.166L74.899,118.276L74.85,117.735L74.924,117.327L75.193,116.942L75.756,115.97L75.854,115.238L75.683,114.41L75.658,113.786L75.781,113.342L75.585,112.779L75.193,112.239L74.924,112.227L74.532,112.371L74.091,112.827L73.552,112.91L73.086,112.623L71.592,112.743L69.289,113.03L68.358,113.318L67.819,113.438L67.182,113.534L66.128,114.062L63.532,116.09L62.993,116.378L62.38,116.414L62.013,116.702L61.449,116.918L60.322,117.723L59.734,118.372L59.367,118.949L58.926,118.973L58.607,118.817L57.529,118.889L56.99,119.093L56.402,119.659L55.667,120.681L55.349,120.97L54.761,121.283L54.075,121.523L53.242,121.909L52.85,121.933L52.532,121.993L52.238,121.824L52.14,121.451L51.699,121.223L50.67,121.102L49.126,120.837L47.534,120.789L46.725,120.813L46.088,120.825L44.962,120.681L44.129,120.657L43.418,121.03L42.365,121.475L41.899,121.596L41.532,121.608L41.189,121.56L40.797,121.319L40.233,120.777L39.817,120.982L39.498,121.223L39.498,120.043L39.498,118.276L39.523,116.726L39.523,115.478L39.523,114.026L39.523,113.006L39.817,112.623L40.013,112.191L39.792,111.604L39.841,111.077L39.988,110.706L40.184,110.346L39.719,110.526L39.523,110.622L39.278,110.897L38.714,111.269L38.322,111.64L37.857,111.94L37.269,112.611L36.779,112.97L36.264,113.21L35.432,113.99L34.746,114.146L32.933,114.266L31.022,114.266L29.282,114.266L29.013,114.254L29.037,113.606L29.086,113.15L28.474,112.671L28.449,112.071L28.278,111.664L28.082,111.161L27.665,110.849L27.102,110.717L26.146,110.442L24.726,110.155L23.354,110.131L22.031,110.167L22.839,109.161L23.648,108.156L23.623,107.282L22.962,106.517L22.619,106.051L22.08,105.393L21.394,104.939L21.026,104.342L21.051,103.983L21.002,103.744L20.732,103.601L20.487,103.386L20.12,103.147L19.703,102.825L19.703,102.502L19.556,102.168L19.287,101.762L19.287,101.44L19.066,100.951L18.797,100.593L18.552,100.342L18.16,100.008L18.184,99.734L18.478,99.591L18.576,99.269L18.552,98.947L18.233,98.756L17.866,98.649L17.351,98.077L17.008,97.779L16.763,97.6L16.641,97.397L16.763,97.254L16.935,97.052L16.959,96.742L16.886,96.444L16.886,96.182L17.131,96.099L17.376,96.146L17.645,95.98L17.964,95.92L18.356,95.884L18.552,95.706L18.527,95.384L18.282,94.765L18.062,94.503L17.964,94.134L18.16,93.396L18.282,92.932L18.723,92.444L20.046,91.385L21.247,90.671L21.81,90.588L22.251,90.327L22.521,89.922L22.594,89.471L22.521,89.09L22.3,88.52L22.055,87.807L21.835,87.403L22.031,86.927L22.349,86.274L22.986,85.288L23.599,84.232L23.648,83.923L23.721,83.282L24.015,81.965L24.162,81.253L24.089,80.969L24.211,80.731L24.603,80.542L25.51,80.352L26.122,79.96L27.053,79.225L27.861,78.431L28.498,78.182L29.699,77.447L30.385,76.985L30.63,76.843L31.316,76.511L32.516,76.392L33.521,76.274L34.084,76.06L34.893,75.966L35.456,75.717L36.068,75.717L37.244,75.456L37.636,75.089L37.979,74.639L38.42,74.248L38.959,74.153L39.547,74.224L40.258,74.212L41.115,74.094L41.532,74.39L41.703,74.757L42.242,75.124L42.61,75.101L42.977,75.03L43.492,75.338L43.835,75.302L44.055,75.124L44.104,74.674L44.227,74.437L44.472,73.052L44.888,70.755L45.256,68.671L45.696,66.364L46.113,63.987L46.554,61.574L46.921,59.6L47.215,57.91L47.411,56.87L47.705,55.499L47.828,54.305L47.95,53.963L47.877,53.667L47.607,53.254L47.607,53.076L47.656,52.828L47.607,52.627L47.338,52.403L47.142,52.261L46.97,52.072L46.897,51.8L46.75,51.529L46.701,51.245L46.505,51.021L46.456,50.737L46.578,50.465L46.652,50.182L46.578,49.91L46.505,49.591L46.358,49.296L46.137,49.107L45.574,48.906L45.035,48.421L44.398,47.984L43.565,47.157L43.394,46.767L43.394,45.704L43.418,44.535L43.467,42.786L43.492,41.888L43.957,41.841L44.374,41.817L44.815,41.758L45.182,41.687L45.525,41.569L45.77,41.404L46.088,41.298L46.333,41.333L46.554,41.191L46.823,41.061L47.093,40.955L47.46,40.86L47.803,41.073L47.999,41.286L48.22,41.392L48.44,41.368L48.587,41.392L48.734,41.558L48.93,41.569L49.224,41.534L49.494,41.498L49.616,41.451L49.616,41.345L49.567,41.156L49.469,40.979L49.543,40.695L49.543,40.364L49.567,39.951L49.347,39.714L49.151,39.277L48.906,38.911L48.538,38.675L48.22,38.58L47.926,38.734L47.656,38.757L47.46,38.627L47.142,38.616L46.799,38.568L46.456,38.521L45.794,38.616L45.549,38.497L45.231,38.486L44.864,38.616L44.888,36.914L44.888,35.319L44.888,34.196L45.231,34.22L45.647,34.019L46.235,33.983L46.725,33.77L46.97,33.759L47.46,33.865L47.975,34.078L48.489,34.113L49.837,34.113L51.258,34.113L52.85,34.113L54.467,34.113L55.839,34.113L56.28,34.125L56.035,33.747L55.741,33.262L55.839,32.884L55.986,32.506L56.157,32.305L56.598,32.517L56.941,33.168L57.26,33.652L57.554,33.9L57.921,33.924L58.313,33.841L58.73,33.64L59.44,32.742L60.126,31.974L60.494,31.714L60.886,31.477L61.155,31.394L61.547,31.418L61.89,31.631L62.111,31.997L62.87,33.274L63.458,34.231L63.679,34.834L63.679,36.3L63.654,37.588L63.728,37.765L63.826,37.812Z" fill="none" stroke="currentColor" stroke-width="2" vector-effect="non-scaling-stroke" stroke-linejoin="round" stroke-linecap="round"/>
</svg>
