<svg viewBox="0 0 300 300" xmlns="http://www.w3.org/2000/svg">
  <path d="M155.667,15.326L155.905,15.249L156.492,15.193L157.078,15.193L157.838,14.929L158.641,14.444L159.162,13.728L159.379,13.067L159.379,12.495L159.14,11.769L159.075,11.252L159.358,11.01L160.096,10.912L160.682,10.428L161.138,10L161.246,10.725L162.071,11.681L162.332,12.77L162.527,12.913L163.656,13.452L163.678,13.584L163.504,13.783L163.352,14.047L163.461,14.422L163.656,14.929L163.743,15.392L163.852,15.877L163.982,16.628L164.069,17.302L164.351,18.297L164.416,18.917L164.416,19.293L164.633,19.658L165.068,20.09L165.676,20.522L166.153,21.044L166.501,21.387L166.956,21.676L167.282,21.931L167.412,22.109L167.456,22.253L167.326,22.397L166.783,23.075L166.045,24.098L166.045,24.231L166.761,24.965L166.87,25.266L166.87,25.678L166.631,26.179L165.871,26.335L165.697,26.469L165.676,26.636L165.849,26.848L165.827,27.339L166.11,27.886L165.958,28.065L165.676,28.321L165.676,28.567L165.762,28.835L166.066,29.059L167.239,29.83L167.326,29.931L167.304,30.009L166.848,30.524L166.804,30.838L166.826,31.364L166.891,31.7L167.043,31.835L167.63,31.992L168.368,33.169L169.062,34.27L169.062,35.226L169.128,36.329L169.584,37.207L169.649,37.907L169.779,38.697L170.322,39.182L170.539,40.143L170.582,40.652L170.561,40.98L170.973,42.022L171.016,42.918L170.908,43.564L170.93,43.928L170.973,44.178L171.342,44.405L171.494,44.553L172.015,44.609L172.775,44.632L174.099,44.393L175.098,44.166L176.227,45.348L175.75,46.942L174.968,49.498L174.36,51.489L174.251,51.752L174.143,52.142L172.84,52.704L170.93,53.519L169.974,53.955L168.737,54.507L168.455,54.955L168.085,55.208L167.695,55.519L167.564,55.865L167.195,56.083L166.87,56.867L166.87,57.467L167.065,57.87L167.434,58.044L167.564,58.54L167.673,58.887L167.933,59.153L167.868,59.372L167.651,59.534L167.26,59.627L167,60.124L166.674,61.341L166.631,61.781L166.978,62.895L167.174,63.488L167.673,65.664L167.76,66.259L167.065,67.088L166.783,67.59L166.674,68.034L166.674,68.385L166.739,68.712L167.326,69.731L167.999,70.657L168.324,71.138L168.324,71.784L168.172,72.148L167.803,72.289L167.022,72.536L166.674,72.913L166.327,72.971L165.979,72.677L165.61,72.748L165.154,73.007L164.981,73.631L164.568,74.715L164.221,75.01L163.96,75.836L163.504,77.018L163.287,77.728L163.179,78.249L162.701,78.581L162.158,79.245L161.746,79.898L161.594,80.076L161.268,80.136L161.051,80.718L160.269,81.598L160.074,82.611L159.792,83.159L159.748,84.138L159.314,85.944L159.227,86.34L158.793,86.651L158.207,87.347L158.033,87.863L158.294,89.402L158.619,90.944L158.641,91.68L158.511,92.671L158.424,93.106L158.641,93.276L159.01,93.397L159.14,93.772L158.858,94.038L158.75,94.523L158.446,95.057L157.577,95.263L157.273,95.069L157.165,95.251L157.208,95.627L157.013,96.077L156.557,97.293L156.275,98.389L156.101,98.865L156.166,99.268L156.318,99.5L156.318,99.72L156.079,99.976L155.84,100.404L155.601,100.466L155.341,100.343L155.059,100.6L154.994,101.126L154.842,101.788L154.776,102.573L154.668,103.567L155.015,104.256L155.471,105.499L155.819,105.807L156.188,105.783L156.492,106.029L156.665,106.325L156.427,106.844L156.036,106.93L155.992,107.227L156.123,107.882L156.253,108.526L156.644,108.835L156.796,109.703L157.165,109.988L157.121,111.094L157.49,112.4L157.881,112.774L158.055,112.949L157.946,113.522L157.621,113.972L157.556,114.696L157.686,115.234L158.077,115.735L158.381,115.785L158.815,115.585L159.271,115.823L159.336,116.261L159.401,116.65L159.162,117.164L158.902,118.119L158.836,119.062L158.902,120.499L159.032,121.623L159.054,122.331L159.075,122.648L158.923,122.863L158.511,122.977L158.163,123.028L157.881,123.205L157.816,123.56L157.577,124.156L157.338,124.601L156.926,125.249L156.665,125.923L156.448,126.369L156.47,126.675L156.318,127.261L156.144,127.759L155.819,129.409L155.384,129.754L155.015,129.921L154.842,130.152L154.972,130.601L155.363,130.729L155.493,131.101L155.428,131.666L155.688,132.194L155.667,132.837L155.905,134.036L155.688,134.837L155.753,135.522L155.753,136.195L155.428,136.726L154.798,136.83L154.451,137.323L153.843,137.855L153.778,138.284L153.669,138.674L153.43,138.817L153.04,138.817L152.736,138.882L152.301,139.377L151.824,139.65L151.715,140.067L151.759,140.563L151.52,140.863L151.194,141.438L150.999,142.065L151.194,142.641L151.411,143.664L151.455,144.11L151.172,144.964L150.955,145.516L151.172,146.214L151.346,146.61L151.172,147.481L151.042,148.023L151.151,149.028L151.585,150.155L151.997,151.151L152.041,152.322L152.149,153.255L152.345,154.27L152.757,154.658L153.083,155.006L153.018,155.488L152.779,156.078L152.453,156.521L151.628,156.668L150.977,157.071L150.434,157.354L150.022,157.69L149.739,158.04L149.587,158.43L149.696,160.143L149.631,160.779L149.349,161.686L149.088,162.404L148.98,162.621L148.958,162.947L148.914,163.246L148.61,163.314L148.22,163.178L147.981,163.26L147.807,163.504L147.959,164.062L148.111,165.056L148.307,165.479L148.263,165.807L148.176,166.531L147.916,167.105L147.547,167.105L147.33,167.352L147.221,167.763L147.33,168.297L147.807,168.723L147.959,169.011L147.894,169.382L147.525,169.533L147.308,169.836L147.112,170.51L146.83,171.268L146.548,171.834L146.483,172.608L146.895,173.438L146.852,174.256L146.808,176.633L146.787,177.442L146.895,178.798L146.743,179.162L146.656,179.512L147.069,180.508L147.525,182.096L147.633,182.73L147.568,183.168L146.96,183.549L146.461,183.704L146.179,183.436L145.962,183.549L145.745,184.015L145.484,184.397L145.376,184.779L145.658,185.26L145.81,186.196L145.484,186.608L145.267,187.048L145.354,187.632L145.441,188.686L145.245,190.444L145.506,191.074L145.81,191.375L146.743,191.733L147.438,191.906L147.633,192.494L147.547,192.969L147.221,193.199L146.7,193.401L146.7,194.164L147.134,194.9L147.633,195.42L147.742,195.883L147.72,196.375L147.373,196.781L147.851,197.651L148.068,198.247L147.851,198.712L147.525,199.397L147.264,199.732L147.264,200.111L147.156,200.871L147.134,201.616L147.221,202.07L150.195,202.422L150.868,202.554L151.259,203.009L151.194,203.567L150.825,204.155L150.586,205.274L150,205.466L149.414,205.171L148.784,205.274L148.22,205.348L147.438,205.378L146.396,205.525L145.745,205.363L145.701,205.776L145.875,206.485L147.264,206.707L148.567,207.121L148.958,207.876L149.479,208.737L150.022,209.272L150.043,210.135L149.197,211.044L149.088,211.686L147.981,211.88L147.655,212.254L147.503,213.512L147.633,214.503L148.068,214.849L148.35,215.496L148.024,216.265L147.286,216.793L146.874,217.291L147.134,217.7L147.46,218.335L147.568,218.684L147.742,219.625L147.959,220.948L147.937,221.588L147.742,222.076L147.004,222.825L146.483,223.177L146.396,224.111L146.353,224.802L146.396,225.432L146.722,225.94L146.7,226.448L146.266,226.556L145.875,226.802L145.506,227.698L144.42,228.626L144.051,229.044L144.073,229.757L143.639,230.767L143.291,231.654L143.009,232.481L143.052,233.356L143.66,233.731L144.16,234.577L144.355,235.66L143.986,236.904L143.118,237.377L142.618,237.897L142.466,238.292L142.596,239.606L142.553,240.209L142.423,240.797L142.206,241.242L141.728,241.735L140.903,242.181L140.208,242.484L139.904,242.819L139.535,243.586L139.21,244.418L139.275,245.461L137.321,245.589L137.19,246.361L136.756,246.973L136.626,248.085L137.06,249.152L137.256,250.06L136.908,251.148L137.038,252.271L137.082,253.152L137.777,254.149L138.211,255.395L138.45,256.43L138.58,257.253L138.754,257.748L139.036,258.309L139.166,258.954L139.6,259.169L140.36,258.557L140.903,258.144L141.272,257.995L142.379,258.094L143.052,257.715L143.356,257.764L143.769,257.979L144.073,258.425L144.312,259.45L144.464,260.594L144.268,261.775L143.964,262.041L143.856,262.375L143.964,263.092L144.312,263.61L144.29,264.329L143.921,265.99L143.66,266.68L144.116,267.455L144.507,268.13L145.31,268.654L145.962,269.381L146.418,269.975L146.309,270.806L146.613,271.044L147.829,271.061L149.653,271.095L152.497,271.129L155.276,271.18L158.424,271.231L159.922,271.895L161.268,272.492L162.983,272.492L164.677,273.192L165.936,273.653L166.696,273.842L167.478,274.013L167.586,274.664L164.177,273.739L163.418,273.226L162.766,273.175L161.529,273.79L160.834,275.298L160.487,275.728L159.618,276.123L158.75,276.209L155.84,277.674L154.798,277.795L154.082,278.192L153.387,278.745L153.126,279.958L153.235,280.688L152.453,283.338L152.258,284.81L152.258,285.582L152.475,286.815L152.193,288.936L151.65,289.397L150.369,290L149.479,289.574L147.981,289.184L146.895,288.369L145.527,287.785L145.072,287.432L143.856,285.811L143.725,285.266L143.639,284.581L144.29,283.6L144.637,283.53L145.636,283.565L146.483,283.408L147.026,283.933L147.156,285.073L146.939,285.67L146.722,286.057L146.787,286.339L147.395,285.934L147.699,283.39L149.739,282.133L150.413,281.401L151.064,280.253L151.172,279.941L151.216,279.507L150.782,279.161L149.826,278.694L146.743,281.07L145.354,281.697L144.442,282.377L143.356,283.618L143.161,283.986L142.922,284.792L142.814,285.705L141.75,285.284L140.1,283.986L139.774,283.495L140.1,282.831L140.599,282.29L140.642,280.427L140.773,279.768L141.12,279.248L141.75,278.676L142.054,278.555L142.314,278.797L142.358,279.23L143.4,279.196L145.419,277.57L146.244,277.519L147.351,277.898L148.589,277.674L148.828,277.501L149.066,277.122L148.155,276.674L147.264,276.45L144.768,276.278L144.225,276.45L143.487,277.329L143.248,277.105L143.096,276.674L142.249,276.364L141.837,276.433L141.446,276.846L141.511,277.484L141.294,278.192L140.512,278.867L139.969,279.976L139.991,280.827L139.969,281.279L139.774,281.523L139.361,281.802L138.059,281.61L137.321,280.705L137.038,280.097L136.213,279.421L138.015,278.607L138.645,278.14L139.231,277.087L139.665,276.416L139.361,275.951L138.992,275.951L139.014,276.691L138.623,277.312L137.798,277.018L136.561,277.916L135.801,277.674L134.585,277.95L133.977,277.467L133.847,276.846L134.064,276.192L133.847,275.11L133.499,274.852L133.152,274.921L133,274.269L132.631,273.141L132.457,272.833L132.284,272.304L132.479,272.185L132.892,272.321L133.261,272.662L133.825,272.714L135.063,273.448L135.584,273.277L135.866,273.106L135.975,272.492L135.975,271.912L136.192,271.912L136.886,272.645L137.342,272.577L138.124,272.782L138.536,272.697L139.275,272.424L140.447,271.606L141.033,270.772L141.337,270.654L141.685,270.755L141.945,271.01L141.945,271.589L142.206,272.134L142.575,272.577L142.683,273.106L142.618,273.653L141.945,274.389L141.815,274.664L142.054,274.938L142.314,274.801L142.705,274.441L142.922,273.927L142.966,273.653L142.987,273.277L142.966,272.816L142.423,271.521L142.358,271.214L142.358,270.62L142.966,270.076L143.139,269.652L143.183,268.84L142.857,268.282L141.533,266.983L139.34,265.705L139.079,265.839L138.906,266.074L139.123,266.242L139.405,266.326L141.359,267.387L141.88,268.012L142.206,268.181L142.618,268.586L142.51,269.195L140.534,269.771L138.971,271.061L137.777,271.844L136.973,271.555L136.582,270.755L136.17,269.737L135.562,269.144L135.215,269.212L134.932,269.094L134.694,268.789L134.238,269.043L133.174,268.333L132.892,268.029L133.651,267.05L134.498,267.421L134.694,264.648L134.433,264.028L133.326,263.343L132.805,263.426L132.067,263.343L131.567,263.025L131.003,262.892L130.525,262.708L129.895,262.291L129.157,262.058L128.137,260.329L127.703,259.417L127.464,258.425L129.027,258.392L129.939,258.226L130.156,257.814L129.83,257.039L129.396,256.413L129.722,255.822L130.178,255.378L130.655,255.575L131.871,256.578L132.067,257.253L132.913,259.334L133.13,259.533L133.217,259.715L134.998,260.893L135.236,260.877L135.128,259.898L135.627,258.557L136.127,258.127L136.365,258.127L136.387,257.913L135.909,257.352L136.148,256.627L135.996,256.611L135.584,257.072L134.715,259.384L134.194,259.815L133.478,258.755L133.087,258.012L132.87,257.731L132.957,256.561L134.368,256.792L133.89,256.413L132.219,255.723L131.806,255.395L131.502,255.28L130.959,254.477L130.264,253.806L131.459,252.597L132.045,251.75L133.955,252.189L134.324,251.929L133.999,251.31L133.63,251.505L133.044,251.115L132.11,249.946L132.153,249.363L132.305,248.279L132.674,248.053L133.456,247.827L134.346,248.182L134.715,248.457L135.063,248.328L134.715,247.537L134.129,247.23L133.499,246.667L133.565,246.039L133.76,245.509L133.934,244.947L134.042,244.146L133.977,243.522L134.151,243.251L134.433,243.123L134.455,242.883L133.89,242.931L133.695,243.714L133.63,244.434L133.217,244.995L133.065,245.654L132.957,246.425L132.74,247.311L132.24,246.973L131.958,246.634L131.849,246.393L131.915,245.943L131.784,243.139L131.763,240.797L132.001,238.988L132.696,238.277L133,238.071L133.282,238.166L133.717,238.15L134.021,237.897L133.044,237.455L132.436,237.708L132.001,238.055L131.198,237.787L131.046,236.872L130.59,236.069L130.503,235.048L130.547,233.59L131.654,233.716L132.566,233.997L134.954,233.966L136.908,235.377L137.777,235.189L137.733,234.907L137.082,234.561L136.669,233.762L136.43,233.543L136.3,233.059L136.279,232.512L135.779,230.503L135.584,230.549L135.388,231.234L134.998,232.387L134.433,232.949L133.565,233.184L132.696,233.309L131.958,233.09L131.784,232.606L131.806,232.06L131.48,231.794L130.634,231.545L130.395,231.421L130.113,230.922L130.525,230.161L130.851,229.711L131.241,229.804L131.632,230.005L132.132,230.596L132.609,230.705L133.152,230.238L133.261,229.912L132.913,229.711L132.609,229.633L132.11,229.385L131.155,228.486L131.632,227.574L132.761,226.525L133.109,226.278L132.805,225.401L133.152,224.434L132.805,223.652L132.175,222.795L131.328,222.611L131.155,222.856L131.111,223.208L131.241,223.468L131.176,223.652L130.981,223.652L129.895,223.468L129.179,222.902L128.007,222.382L127.855,221.985L127.724,221.39L128.137,220.37L127.92,220.354L127.16,221.146L126.009,221.558L125.141,221.695L124.772,222L124.62,222.275L124.858,222.428L125.336,222.458L125.705,223.453L125.618,223.836L125.445,224.081L125.032,224.142L124.207,223.453L123.773,222.672L123.773,222.061L124.077,221.238L125.401,220.111L125.77,219.64L126.552,219.124L127.594,217.942L128.484,217.291L128.05,216.747L127.594,215.948L127.637,214.819L129.461,214.368L130.264,214.563L131.285,214.518L131.849,214.248L132.24,214.203L133.109,213.887L133.478,213.452L133.565,213.123L133.565,212.823L133.478,212.479L133.326,211.552L133.478,211.238L133.847,210.88L134.324,210.761L134.542,210.791L135.128,211.119L134.998,211.597L134.78,212.179L134.303,214.473L134.064,214.999L133.695,215.451L133.955,216.385L133.565,217.05L131.915,217.76L131.697,217.79L131.828,218.048L132.783,217.987L133.521,217.836L134.259,217.246L134.498,216.34L134.802,214.578L135.193,214.323L135.671,214.278L135.909,214.683L135.823,215.616L135.823,216.521L135.215,219.184L134.455,220.263L134.368,220.552L134.411,220.887L134.998,220.841L135.453,220.263L135.779,219.518L136.105,218.487L136.061,217.745L136.17,217.291L136.3,215.782L136.539,215.029L136.517,213.962L136.105,213.572L135.54,213.332L135.388,212.688L135.692,211.402L136.778,211.447L137.82,210.567L138.493,210.254L138.884,210.328L140.23,211.164L140.49,211.178L140.447,210.865L140.252,210.656L139.709,210.373L138.732,209.48L137.407,209.331L137.646,208.173L137.907,207.106L138.558,206.973L139.622,206.618L141.663,205.038L142.032,203.846L142.119,202.51L141.142,202.173L140.1,201.295L139.253,200.841L138.493,200.257L138.645,199.397L138.754,197.985L139.687,197.68L140.121,195.767L139.492,194.294L139.644,193.199L140.469,192.279L140.599,191.633L140.838,190.93L141.554,190.859L141.576,190.472L141.511,189.771L141.033,188.943L141.012,187.803L141.467,186.466L142.184,186.551L142.314,186.494L141.815,185.685L141.402,184.793L141.467,184.439L141.858,184.142L142.314,183.973L142.814,184.425L143.53,185.884L143.639,185.501L143.356,184.029L143.118,182.195L142.358,182.434L141.685,182.308L141.424,182.026L141.164,181.604L141.402,181.112L141.641,180.732L142.141,180.269L143.204,180.101L143.964,179.512L144.203,178.294L143.964,178.42L143.552,179.484L142.857,179.848L142.51,179.792L142.097,179.596L141.272,178.658L140.816,178.448L140.382,178.42L140.013,178.658L139.058,180.297L138.645,180.578L136.952,180.704L136.344,180.508L135.671,180.269L135.736,179.862L135.953,179.428L136.322,179.204L136.344,178.966L135.823,178.896L135.215,178.448L134.932,177.875L134.824,176.856L134.281,175.242L134.173,174.09L134.542,173.272L135.367,170.07L135.627,168.435L136.061,167.01L136.061,166.08L137.19,165.22L137.625,164.702L138.602,161.835L138.732,160.292L137.19,155.636L136.952,154.752L136.886,153.656L137.256,151.843L137.299,151.151L136.973,150.155L136.105,148.538L136.083,147.719L136.452,146.874L136.105,145.819L136.279,145.174L136.474,144.661L137.842,144.937L138.471,144.806L138.797,144.504L139.058,143.65L139.188,142.301L139.275,141.725L139.383,140.889L140.056,140.55L140.295,139.754L140.86,138.661L141.424,135.574L142.01,134.824L142.596,133.946L142.358,132.657L142.748,132.065L143.074,131.628L143.378,130.844L143.791,130.1L144.789,129.037L145.028,127.746L145.788,125.503L145.94,124.08L146.179,123.116L146.114,122.217L146.57,121.13L147.004,120.209L147.156,119.704L148.155,118.483L148.328,117.528L147.959,116.875L147.959,115.86L147.677,114.459L148.328,113.947L148.589,113.56L149.436,111.33L149.37,110.46L149.609,109.38L149.066,108.105L148.98,105.253L148.676,103.051L148.176,100.747L148.22,99.463L147.894,97.865L147.894,96.94L148.133,94.863L149.739,93.554L150.065,92.091L150.261,90.124L150.195,88.692L150.022,88.043L149.24,86.999L149.023,85.118L149.175,84.628L149.848,84.102L150.304,83.374L150.543,82.241L151.042,81.348L151.238,79.198L151.628,77.491L151.845,76.9L152.497,76.155L152.605,75.954L152.714,75.387L152.67,74.055L152.779,73.23L153.278,71.631L153.344,70.892L153.908,69.239L154.038,68.057L154.299,67.438L154.19,66.737L154.364,65.175L153.973,64.29L153.886,63.779L154.364,62.187L154.711,61.793L155.232,61.051L155.471,60.217L155.515,59.696L154.82,57.074L154.733,56.175L154.885,54.105L155.124,52.773L155.059,51.707L155.124,51.157L155.254,50.47L155.71,49.647L155.819,49.053L155.667,48.813L155.102,48.505L154.646,47.751L154.603,47.01L154.755,46.475L154.798,45.712L155.471,45.564L155.84,45.144L156.188,44.348L156.622,42.43L156.817,40.064L157.078,38.651L157.252,37.94L157.404,36.475L157.664,35.518L157.707,34.641L157.664,33.967L157.013,30.558L157.013,29.305L157.295,27.361L157.295,24.643L157.252,24.009L156.991,23.408L156.926,22.608L156.535,21.199L156.166,18.397L156.166,16.915L156.014,15.657Z" fill="none" stroke="currentColor" stroke-width="2" vector-effect="non-scaling-stroke" stroke-linejoin="round" stroke-linecap="round"/>
</svg>
