<svg viewBox="0 0 300 300" xmlns="http://www.w3.org/2000/svg">
  <path d="M290,274.693L282.462,274.736L274.923,274.736L267.385,274.736L259.846,274.736L252.308,274.736L244.769,274.736L237.148,274.736L229.609,274.736L222.071,274.736L214.533,274.736L206.994,274.736L199.456,274.736L191.917,274.736L184.296,274.736L176.757,274.736L169.219,274.736L164.911,274.736L165.657,272.539L166.154,270.943L165.574,269.865L164.166,269.606L163.172,269.951L160.935,274.564L159.775,274.78L157.041,274.78L148.26,274.78L139.479,274.736L130.698,274.736L121.917,274.736L113.136,274.736L104.355,274.736L95.491,274.736L86.71,274.736L77.929,274.736L69.148,274.736L60.367,274.736L51.586,274.736L42.805,274.736L34.024,274.736L25.243,274.736L16.379,274.736L16.379,269.174L16.379,263.56L16.379,257.98L16.379,252.391L16.379,246.749L16.379,241.141L16.379,235.48L16.379,229.853L16.379,224.217L16.379,218.526L16.379,212.87L16.379,207.203L16.379,201.482L16.379,195.795L16.379,190.097L16.379,184.345L16.379,178.626L16.379,172.896L16.379,167.111L16.379,161.359L16.379,155.551L16.379,149.777L16.379,143.991L16.379,138.148L16.379,132.338L16.379,126.517L16.379,120.638L16.379,114.793L16.379,108.935L16.379,103.019L16.379,97.136L16.379,91.24L16.213,90.096L14.97,86.11L13.811,80.971L12.485,74.626L12.32,72.599L10.249,66.095L10,64.2L10.58,62.906L14.059,57.397L15.053,54.708L15.964,51.458L16.296,48.856L15.219,44.854L14.059,41.219L13.645,37.533L13.479,33.841L15.219,31.361L17.373,29.019L18.201,27.613L19.444,25.971L20.355,25.22L22.095,28.503L25.657,29.066L37.42,26.159L50.426,29.066L57.55,30.19L68.568,32.718L75.278,37.159L77.183,37.719L81.988,37.626L85.136,40.24L97.728,41.499L104.438,44.388L108.249,46.716L110.568,47.414L112.556,47.321L115.29,46.437L118.769,44.808L122.497,42.571L130.284,36.739L133.018,35.711L134.84,35.991L137.077,35.898L137.988,34.355L139.148,33.279L139.811,32.016L141.053,30.565L145.03,30.143L153.148,27.613L152.237,28.785L144.864,31.642L148.012,32.016L151.243,31.033L154.97,30.424L155.633,29.206L156.13,26.909L156.876,26.628L159.361,27.05L166.982,30.518L168.888,30.611L174.272,28.691L175.349,28.269L177.089,29.347L181.065,33.7L179.657,33.607L175.432,29.862L175.101,31.735L172.698,35.01L175.68,36.412L178.166,36.925L179.491,38.747L180.32,40.38L182.722,39.68L184.462,37.486L183.55,36.225L182.888,34.963L183.716,34.916L185.373,35.991L190.178,40.147L191.834,41.033L193.657,40.893L197.633,39.68L198.71,39.867L203.929,38.326L204.592,39.493L205.42,40.613L209.645,39.353L216.272,39.353L221.74,38L228.036,34.682L228.533,34.168L228.864,35.01L229.609,37.252L231.515,42.991L233.172,47.461L235.243,53.687L235.905,56.053L236.154,57.675L239.136,64.478L240.876,70.064L242.201,74.579L243.941,81.109L244.769,83.404L243.527,84.597L240.876,88.86L238.142,102.381L234.249,112.887L233.834,119.416L233.172,121.77L231.266,125.071L229.03,128.323L224.97,126.653L218.426,120.955L214.615,115.518L210.556,112.024L206.663,107.343L205.586,104.021L205.669,101.834L203.929,96.588L202.686,94.075L197.964,88.447L196.639,85.469L195.562,84.139L194.568,82.257L192.828,74.902L190.923,70.248L188.852,71.539L189.183,73.52L187.361,76.236L186.201,79.363L187.112,81.936L190.923,85.835L191.751,87.531L192.663,91.194L192.497,96.222L193.077,97.912L195.976,101.606L197.053,103.793L197.633,105.705L198.627,107.434L201.444,110.662L205.586,116.743L209.479,120.865L212.379,122.856L213.538,124.845L213.787,129.948L213.621,132.429L216.107,136.978L217.018,139.317L219.42,141.206L220.497,143.362L221.491,146.863L222.982,157.205L225.136,159.707L231.515,173.207L236.982,181.731L239.633,188.107L243.609,195.795L251.479,212.65L256.118,217.825L257.941,220.716L261.337,222.948L264.982,226.184L261.503,225.878L260.675,226.097L259.432,226.621L258.852,228.587L258.604,230.203L259.018,238.66L259.929,242.925L262.994,251.09L265.314,253.518L266.473,255.078L267.964,256.248L275.254,258.976L279.562,264.857L289.089,272.194L290,274.219Z" fill="none" stroke="currentColor" stroke-width="2" vector-effect="non-scaling-stroke" stroke-linejoin="round" stroke-linecap="round"/>
</svg>
