<svg viewBox="0 0 300 300" xmlns="http://www.w3.org/2000/svg">
  <path d="M278.594,127.732L275.937,129.184L275.391,130.467L274.375,132.139L272.656,132.863L271.016,133.086L269.609,132.863L268.828,132.195L268.906,131.582L268.203,131.08L266.406,131.08L264.531,132.251L263.047,134.144L263.516,135.201L264.922,135.479L265.234,135.868L265.234,136.424L264.766,137.091L264.219,138.201L261.328,141.529L258.437,144.85L257.969,145.845L257.109,146.564L253.438,148.331L253.047,149.048L252.813,152.024L252.422,154.5L249.687,156.753L247.031,159.058L246.328,160.429L245.859,162.017L245,163.878L244.844,164.807L246.172,166.391L246.016,167.647L245.625,169.501L244.297,170.809L242.891,171.517L242.891,173.53L243.672,173.802L245.391,173.639L247.891,172.224L249.453,170.319L248.516,168.574L248.359,168.247L248.594,167.811L250.547,165.9L252.813,164.752L256.094,164.534L260,165.19L260.391,165.463L260.156,166.664L260.547,168.411L261.25,169.61L260.312,173.095L261.016,174.128L262.109,175.432L262.969,176.627L264.219,177.712L265.312,179.502L265.703,180.531L263.906,182.371L261.016,184.048L260.625,185.075L260.703,186.317L261.016,187.288L262.656,188.528L264.375,191.276L265.547,193.75L267.969,196.167L268.594,196.865L268.437,197.455L267.734,198.474L266.953,201.847L265.938,202.382L264.844,202.596L261.797,205.055L260.469,204.734L258.516,204.788L257.188,205.589L257.266,207.083L258.516,208.522L259.219,210.014L259.531,211.611L260.937,212.781L262.812,213.472L263.906,213.525L264.609,213.951L265.078,214.482L265.859,217.878L265.391,218.726L264.375,219.097L263.75,220.474L262.5,222.537L261.797,224.176L262.578,225.602L262.891,226.657L262.5,227.765L263.047,229.451L264.531,231.136L268.437,233.555L272.109,235.445L273.281,235.76L278.203,234.553L279.063,234.658L279.688,236.128L279.922,237.124L279.375,238.592L278.047,240.687L276.562,242.309L275.703,243.72L275.859,244.974L275.937,246.644L274.766,247.166L274.688,246.801L274.219,246.54L273.828,246.696L273.516,247.061L273.437,247.687L270.938,248.782L269.141,249.876L262.266,256.477L259.062,258.447L258.437,259.587L257.813,261.761L255.937,263.623L254.219,264.501L250.156,265.431L246.016,267.391L244.219,266.566L239.375,266.618L236.406,264.243L230.625,262.744L228.75,259.276L226.172,259.069L224.453,259.173L223.438,258.655L223.125,257.462L223.125,256.321L221.328,256.84L219.922,256.84L219.063,257.307L218.438,257.825L217.656,257.462L217.187,257.618L217.266,258.292L215.547,258.447L213.75,258.033L208.984,256.217L208.281,255.958L205,255.283L203.672,254.556L202.578,252.737L201.719,252.217L201.25,251.853L198.203,252.737L197.109,254.141L195.469,255.802L184.063,263.829L181.953,267.134L179.531,272.079L179.375,274.341L180.391,281.622L182.734,285.456L183.047,286.374L181.719,286.374L179.531,285.864L177.734,285.302L176.094,285.609L174.453,286.426L172.969,286.885L171.953,287.038L171.25,287.446L170.938,288.364L170.859,289.027L169.062,288.874L164.844,287.548L161.094,286.63L158.828,287.65L157.422,288.619L156.406,288.466L155.703,287.497L155.156,286.477L153.672,285.609L150.312,284.229L150.547,283.565L151.094,282.645L151.094,282.082L150.391,281.263L147.344,280.342L145.937,280.137L145,280.751L144.297,281.519L142.578,278.702L141.406,278.138L139.531,278.036L137.422,277.164L135.234,276.087L129.922,274.341L128.438,274.135L127.891,274.392L127.5,275.47L127.266,278.395L127.031,278.754L124.531,278.856L121.484,278.446L120.078,278.651L118.828,278.651L117.656,277.831L112.422,278.754L111.562,278.292L110.313,276.959L108.828,275.881L107.734,275.368L106.797,274.7L105.938,274.597L104.688,275.214L102.891,275.47L101.406,275.419L100.625,275.522L97.266,272.233L96.797,271.358L95.078,271.101L93.047,271.049L87.813,268.938L85.391,267.752L85.078,267.082L85.078,266.566L84.688,266.669L83.984,267.649L83.594,268.423L83.047,268.577L82.344,268.474L81.641,268.01L81.172,267.443L81.641,266.411L82.422,265.121L82.813,263.674L82.734,262.434L81.406,261.606L79.453,261.244L78.047,261.14L76.172,260.416L75.234,259.898L74.453,258.447L74.375,257.411L77.891,256.529L81.094,252.737L84.141,239.011L86.328,222.643L87.891,219.574L89.922,218.673L88.281,216.446L87.266,217.56L86.875,218.779L86.328,219.415L87.5,204.253L88.359,198.634L89.844,192.782L92.891,195.093L95.391,197.455L96.719,199.545L98.359,206.336L99.531,207.776L101.406,209.162L100.703,207.616L99.375,206.443L97.422,197.348L96.172,194.771L94.219,192.621L87.969,188.043L87.344,187.126L87.031,185.399L89.141,185.453L90.938,186.317L90.703,185.345L90.156,184.318L89.375,180.585L88.672,171.843L88.75,170.319L88.438,168.465L86.406,168.083L84.844,167.974L83.125,167.265L74.531,162.072L71.641,156.699L68.594,152.74L67.891,150.978L67.969,149.213L69.531,145.514L68.125,143.135L66.797,142.692L65.625,141.529L66.719,139.589L67.578,138.312L69.297,137.979L71.641,138.423L73.828,139.533L75.469,139.811L70.469,136.813L62.266,137.813L60.469,137.424L58.984,136.757L58.438,134.533L59.609,133.531L60.625,131.638L59.453,130.355L57.891,129.853L55.469,129.909L53.203,130.299L52.656,129.518L53.984,127.452L52.813,126.67L51.25,127.061L48.984,127.452L46.797,126.838L44.766,124.489L43.438,124.489L42.5,124.768L41.094,123.873L39.609,123.649L38.594,123.929L37.188,122.584L28.672,119.837L25,119.5L21.641,120.734L19.766,120.342L18.359,118.545L17.266,115.622L11.797,113.313L12.891,111.791L15.391,111.453L18.281,110.381L19.375,109.082L17.109,107.5L15.391,107.104L14.688,106.538L13.984,105.18L15,104.5L15.703,104.84L17.734,105.067L21.25,104.727L20,103.31L18.594,102.97L17.969,102.63L15.156,102.46L13.828,102.97L10.938,102.743L10.234,101.212L10,99.906L10.859,97.007L15,94.387L25.234,91.478L29.609,91.878L32.734,91.364L36.406,89.593L37.969,87.992L43.203,87.076L48.125,88.736L52.734,94.957L54.922,97.063L60.234,93.418L68.203,93.532L69.844,95.583L70.469,93.874L71.953,91.821L73.125,92.734L73.75,93.988L82.109,93.646L83.438,93.304L81.172,91.821L79.375,88.278L78.984,75.127L76.641,71.433L73.984,65.528L72.734,62.044L72.656,60.823L73.047,59.077L76.328,59.135L78.828,59.601L83.672,58.262L86.016,59.194L85.859,61.928L86.563,65.412L87.422,67.035L88.594,68.946L92.5,68.772L96.719,69.872L102.031,70.045L109.766,72.01L113.047,70.855L116.25,68.483L122.344,66.919L122.891,66.107L119.375,66.455L116.094,64.947L115.703,63.264L116.094,61.812L117.344,58.437L126.719,53.069L133.359,51.432L140.313,48.504L143.828,45.454L146.172,41.456L146.953,40.632L147.891,39.866L146.953,38.451L147.578,23.283L148.281,20.543L149.609,18.275L151.719,16.542L154.844,14.628L166.406,11.993L168.125,10.973L168.359,12.592L169.219,14.688L169.766,15.825L169.297,17.319L169.688,18.574L171.25,20.781L173.203,22.867L174.922,24.236L175.469,24.057L176.719,23.7L178.906,22.331L180.781,21.914L181.797,22.926L182.344,23.522L183.516,25.901L183.828,28.335L184.375,30.352L185.312,31.181L188.75,31.477L191.328,32.247L192.031,32.898L192.891,37.389L193.359,38.038L194.062,37.507L194.687,36.799L195.547,36.681L197.031,36.976L199.062,37.035L201.094,37.507L203.906,40.101L203.828,40.926L203.281,42.397L203.047,43.573L203.516,44.044L204.297,45.219L204.141,46.627L203.359,47.625L203.125,48.445L203.125,48.973L203.359,49.383L203.984,49.734L208.125,50.261L211.953,49.734L214.375,48.328L214.766,46.862L215.469,45.16L216.875,43.691L217.891,43.221L218.828,43.809L217.266,49.793L218.359,51.315L218.516,53.595L218.984,55.58L220.312,55.521L221.953,55.872L223.125,56.63L224.531,57.796L226.484,58.902L227.891,59.252L228.359,60.183L229.531,61.23L231.25,63.38L232.812,64.831L233.594,64.831L235.078,64.251L237.266,63.903L238.984,63.961L239.688,65.064L241.406,65.528L241.953,65.991L242.656,66.745L243.75,67.035L245.156,66.745L246.094,65.702L247.422,65.238L248.75,65.412L249.531,65.991L251.016,66.803L251.797,66.629L253.438,67.151L255.156,68.714L255.781,70.334L256.016,71.201L256.719,72.184L259.453,76.51L260.391,76.741L261.328,76.049L261.953,75.127L262.891,74.954L264.297,75.358L265.234,75.876L265.703,77.777L266.016,78.122L266.641,77.719L267.812,77.604L269.531,78.065L272.031,77.547L273.984,76.741L275,76.798L276.641,78.985L278.516,79.791L282.578,80.423L286.953,81.457L288.672,82.318L289.844,82.72L290,85.587L289.609,86.046L285.234,91.763L283.438,93.817L282.5,96.779L281.797,101.212L280.547,105.463L278.594,109.477L277.891,112.524L278.437,114.496L278.125,117.646L276.953,121.912L276.719,125.16L277.5,127.285Z" fill="none" stroke="currentColor" stroke-width="2" vector-effect="non-scaling-stroke" stroke-linejoin="round" stroke-linecap="round"/>
</svg>
