<svg viewBox="0 0 300 300" xmlns="http://www.w3.org/2000/svg">
  <path d="M276.2,225.728L275.504,226.354L273.881,224.544L273.881,223.569L275.504,222.455L276.315,222.246L276.547,222.943L276.547,224.544ZM42.814,151.476L43.278,156.251L45.481,157.105L48.495,161.374L48.264,163.576L47.568,164.287L42.583,162.298L41.423,163.221L39.916,162.866L39.104,160.449L39.22,159.667L38.293,158.244L37.713,157.604L35.742,159.454L34.467,159.809L34.467,158.102L36.322,153.401L37.133,152.617L38.641,154.185L39.8,153.615L40.728,151.048L40.843,148.479L41.191,147.694ZM51.742,175.133L55.104,179.093L52.437,178.103L49.423,180.859L45.829,177.679L43.51,174.425L43.046,173.151L45.365,170.104L47.568,173.221L50.119,173.717ZM45.249,142.19L43.974,142.547L42.93,142.333L41.887,142.476L40.959,143.263L41.075,140.042L42.235,135.959L43.51,133.592L45.481,132.515L46.293,134.381L46.177,140.973ZM47.568,153.686L45.945,154.114L43.974,150.192L43.162,147.479L43.974,147.337L44.785,147.694L45.713,148.693L45.713,149.764L46.061,150.834L46.872,152.189ZM25.655,108.079L26.351,110.395L22.293,108.948L19.395,106.849L16.96,101.703L11.743,95.821L11.743,94.075L13.714,92.766L17.888,91.893L19.627,92.839L20.67,93.784L21.018,94.948L18.699,97.201L18.119,98.218L19.974,100.251L19.974,101.05L20.786,105.038L21.714,106.486L24.032,107.645ZM133.131,127.774L134.87,132.228L136.609,133.735L140.203,135.528L141.942,135.815L147.971,139.04L155.159,139.613L156.087,140.544L156.898,143.048L158.406,144.979L158.753,146.551L157.942,148.193L158.985,153.33L160.84,158.173L163.507,160.52L166.869,161.231L170.115,161.16L170.927,162.155L170.579,166.345L169.188,168.048L168.144,168.403L167.101,167.977L166.289,166.984L165.362,166.487L163.507,166.416L162.116,164.713L158.753,162.369L158.174,161.018L158.058,158.813L156.551,157.248L155.275,154.185L154,153.401L153.304,151.833L153.188,151.191L148.203,150.763L144.145,150.763L140.667,149.05L139.623,144.55L137.537,143.334L136.029,142.047L134.754,140.257L131.392,137.034L127.798,134.237L124.32,132.443L120.609,131.294L117.595,132.659L115.856,132.371L115.508,131.438L119.334,129.499L124.435,125.904L128.03,124.752L129.769,124.608ZM144.841,121.296L143.449,122.736L141.131,122.088L138.812,117.402ZM148.319,119.494L146.812,119.998L148.319,116.68L150.985,114.948L149.942,117.691ZM173.71,133.95L170.231,134.955L169.304,134.811L170.115,133.52L170.115,133.017L166.753,130.648L167.217,127.63L167.565,126.839L170.115,128.421L170.695,131.079ZM176.84,58.359L172.782,59.832L168.492,56.959L168.608,55.264L170.811,51.797L171.97,50.763L175.101,51.058L176.84,53.42L177.304,54.527L176.724,56.444ZM137.421,170.246L136.145,171.238L134.754,171.167L133.711,170.813L133.247,170.034L133.827,169.608L134.638,167.977L135.334,167.552L136.377,167.764L136.957,168.403ZM121.421,240.309L121.073,242.04L117.827,240.863L116.899,239.062L116.668,235.109L117.595,233.166L118.175,232.541L119.682,234.762L122.812,238.022ZM254.171,269.064L253.012,271.26L251.736,269.407L252.316,267.279L250.809,263.843L253.591,258.751L253.591,256.27L255.678,254.961L255.215,259.233L253.591,262.605L255.215,265.355L256.026,268.515ZM249.186,209.469L245.939,210.028L246.519,206.809L245.012,204.287L247.447,205.688L249.07,207.369L249.881,207.719L249.65,208.769ZM246.867,218.76L245.939,218.83L247.099,216.876L250.461,214.223L255.446,211.847L257.07,211.637L259.852,213.105L254.751,215.48L253.36,216.737L249.65,217.016ZM201.767,209.119L198.868,210.658L196.897,208.419L195.738,204.917L201.071,199.868L202.346,200.289L203.042,201.622L202.926,206.178ZM193.071,205.058L190.521,208.139L188.434,207.789L187.506,206.389L188.898,203.446L191.68,201.763L192.955,202.254L192.839,204.427ZM199.68,232.194L198.173,234.276L196.086,233.513L196.897,232.749L197.477,231.707L197.477,230.179L196.897,229.275L197.245,228.928L199.216,230.457ZM196.434,220.922L195.854,221.549L193.419,218.969L192.492,217.504L193.651,216.248L197.245,219.179ZM242.925,174.92L246.867,176.265L247.91,176.123L249.765,176.548L250.345,179.022L247.795,179.446L243.505,181.706L241.766,181.212L239.563,179.234L236.085,179.022L235.041,178.457L236.896,176.123L240.258,174.991ZM217.303,186.363L215.795,186.504L216.259,184.882L219.158,182.059L223.1,181.918L226.81,180.506L227.621,180.506L225.882,182.695L222.984,184.811ZM211.853,216.248L208.955,216.527L208.027,216.248L209.767,215.55L211.042,214.851L211.622,213.943L214.52,212.336L216.375,210.308L218.462,211.707L215.795,212.616ZM231.215,224.475L228.665,225.449L227.041,227.467L225.07,226.006L225.07,224.057L227.157,224.684L228.665,223.569L228.201,222.316L229.94,222.943ZM163.391,184.459L161.188,186.433L160.84,183.471L162.232,180.364L164.087,180.152L164.782,181.494ZM165.942,193.897L164.087,195.092L164.782,192.279L163.855,190.801L164.666,189.604L165.826,188.547L166.405,189.604L167.449,191.294ZM169.188,217.295L169.188,219.667L169.072,220.503L162.463,221.619L163.043,218.969L163.391,218.062L165.594,219.318L166.405,218.69L166.753,217.993ZM182.289,187.843L182.173,192.068L181.246,191.997L180.782,191.364L180.782,189.745L181.13,187.209ZM183.912,176.972L182.869,179.729L180.434,176.548L177.651,174.354L176.608,172.443L174.985,171.309L174.521,168.757L176.492,167.694L177.42,167.623L179.506,170.742L182.753,171.097L182.521,173.009L183.448,175.486ZM192.376,183.541L191.216,186.151L189.129,185.728L185.767,182.906L184.608,181.636L184.028,180.364L185.419,180.223L187.042,181.565L191.332,182.271ZM175.101,210.938L174.521,211.147L173.71,209.399L173.478,207.859L173.825,206.949L174.985,206.809L176.492,209.818ZM219.389,158.244L216.259,160.591L212.897,157.248L212.317,156.18L214.752,154.826L216.027,152.688L215.1,150.121L211.506,146.336L211.39,143.62L216.723,142.476L219.853,144.836L221.476,145.05L220.897,147.265L221.129,147.979L221.36,154.826L219.853,155.752L219.621,157.604ZM229.592,112.347L229.012,114.803L233.418,118.917L234.925,121.512L235.505,124.033L235.157,124.752L233.418,123.385L232.027,122.952L232.491,124.752L233.998,126.263L231.447,127.198L228.896,127.126L221.476,124.968L219.853,122.664L224.259,119.205L225.186,117.835L222.056,117.979L218.694,122.088L213.361,120.287L211.737,118.628L211.274,117.763L213.477,114.081L217.187,114.226L219.158,113.431L221.592,112.275L221.708,110.539L227.505,110.105ZM206.172,66.302L202.578,67.404L198.52,63.951L202.462,62.554L204.201,63.583L205.477,64.759ZM198.173,85.042L197.013,86.428L196.086,88.907L195.622,92.329L193.767,92.475L192.608,91.747L192.26,90.436L192.144,88.761L191.332,88.834L190.637,90.655L190.057,91.456L188.202,91.601L186.115,90.509L186.231,88.105L185.767,85.334L185.999,84.312L191.68,84.093L193.303,86.136L195.39,84.969L196.202,83.655L198.636,82.852ZM197.129,190.871L193.999,191.082L194.231,187.984L195.39,187.209L198.984,188.759L198.868,189.745ZM168.84,202.745L167.565,203.376L165.594,202.464L166.173,200.219L167.449,199.307L168.956,200.009L169.188,200.991ZM275.736,250.683L273.301,251.511L272.605,251.373L271.562,249.578L272.953,245.085L271.678,242.248L271.562,241.002L273.533,239.339L274.808,236.843L277.939,234.068L286.286,230.874L288.257,230.526L288.141,233.096L285.359,239.478L282.924,242.663L283.62,245.224L279.678,245.984ZM147.159,266.317L149.362,266.592L152.377,266.523L153.072,266.317L154.927,263.98L157.246,263.911L158.29,266.248L155.971,267.279L155.391,267.897L155.855,268.377L157.71,269.27L160.145,268.927L160.261,270.711L160.724,272.22L162,273.111L163.275,273.248L166.289,272.974L169.188,272.426L172.086,271.26L175.101,270.642L184.26,271.26L187.506,273.728L193.651,274.071L199.448,275.373L202.462,274.482L207.68,273.66L208.491,274.551L207.796,280.165L208.143,281.806L209.651,282.558L211.042,282.216L212.897,280.37L217.187,278.933L221.708,278.933L225.534,275.236L226.694,275.03L225.998,276.811L225.418,281.122L224.607,283.651L224.259,285.632L221.708,286.657L217.882,286.861L210.81,286.452L203.854,287.134L190.753,289.045L177.651,290L175.912,289.386L175.912,286.861L175.565,285.154L174.753,283.925L170.695,282.9L166.869,281.122L151.797,278.659L148.203,277.701L142.406,278.249L140.319,278.18L138.812,277.29L137.768,275.784L137.305,271.054L138.116,266.317L139.276,265.08L139.855,266.523L141.363,267.141L142.754,265.698L142.754,263.568L143.449,261.573L144.493,262.398L145.304,265.492ZM226.694,11.199L229.592,12.097L231.215,13.52L232.259,14.791L233.882,15.913L235.041,16.212L235.969,20.023L236.432,24.722L235.737,26.809L233.65,27.255L227.041,31.72L226.81,35.806L226.925,37.81L227.041,39.219L227.737,40.405L227.737,42.11L227.041,43.887L224.143,46.92L222.056,49.36L219.853,52.609L218.578,53.051L217.534,53.568L216.723,51.797L211.737,48.621L200.144,46.772L194.579,44.405L192.144,44.849L187.506,42.184L184.26,43.369L177.42,48.029L173.825,47.512L169.884,44.701L167.333,44.183L164.318,45.663L159.449,51.058L154.58,53.715L150.174,52.682L144.261,52.682L143.681,55.707L144.841,57.77L147.971,61.304L146.464,64.024L147.623,66.669L149.71,67.183L152.956,67.036L158.753,70.485L161.304,74.15L162.927,78.102L159.449,75.248L157.014,72.538L153.768,71.512L149.13,69.165L146.232,68.798L143.218,70.412L142.87,72.245L146.232,75.687L149.246,77.81L150.87,79.491L151.913,83.29L151.333,84.531L150.174,85.772L146.58,83.363L141.131,74.882L133.479,73.198L132.203,74.955L133.711,79.418L134.754,81.172L141.478,86.063L140.899,87.084L139.971,87.522L132.435,84.75L130.232,80.515L129.769,75.175L122.928,71.512L116.436,67.477L114.928,63.583L116.32,62.186L117.247,59.39L113.653,59.905L111.45,61.671L107.74,63.363L107.624,66.229L108.204,68.872L107.045,72.685L105.885,79.272L106.581,82.779L114.465,92.693L117.131,99.888L118.986,102.573L123.044,105.617L127.218,111.118L128.957,114.081L130.232,118.773L126.754,121.728L124.667,121.872L123.624,120.503L125.131,117.33L124.899,115.309L119.45,112.275L117.131,113.359L114.581,115.309L116.088,118.989L117.711,121.44L118.639,124.752L121.885,124.464L117.479,128.205L113.421,130.145L109.363,130.217L106.697,130.576L105.885,131.51L107.972,132.228L109.711,132.3L112.494,134.309L120.378,136.747L124.204,139.756L127.914,140.042L131.624,145.622L138.116,147.122L141.71,152.76L146.696,153.9L150.87,155.966L152.145,157.888L152.725,161.445L152.956,169.041L153.884,174.637L153.884,176.406L153.652,179.022L152.609,180.364L150.985,180.364L147.971,176.265L143.334,171.947L138.464,166.771L137.073,165.849L135.913,165.778L133.247,167.552L125.943,168.899L122.58,170.742L121.305,171.167L120.841,172.159L122.464,173.221L124.435,175.557L124.435,178.739L126.059,182.695L128.146,183.683L130.928,183.612L132.435,184.318L132.899,185.869L134.522,187.702L135.566,189.04L135.45,189.956L127.798,192.56L126.29,193.686L124.899,194.319L122.928,193.053L122.812,189.956L120.262,188.336L117.827,186.856L114.928,186.222L112.494,184.106L110.871,185.869L112.146,191.857L114.928,196.076L119.566,207.159L121.653,213.664L122.117,216.876L121.073,222.107L123.276,226.006L124.899,229.97L123.16,229.831L121.653,228.441L119.218,226.772L114.349,220.364L112.61,216.387L110.639,216.108L107.161,216.667L103.219,225.171L103.335,230.04L101.248,228.858L99.625,227.328L99.74,222.037L99.625,219.806L94.987,212.546L92.784,211.707L91.857,209.259L90.118,206.599L87.915,207.159L86.06,208.209L85.596,212.126L85.364,215.689L84.089,218.342L79.103,213.314L74.118,204.497L74.002,199.728L77.596,195.303L77.132,192.138L73.654,185.869L68.669,181.847L65.886,180.647L64.611,176.406L61.944,174.213L59.742,173.151L59.278,171.593L59.973,170.459L65.191,166.062L68.321,159.169L69.828,158.813L72.959,160.449L76.553,160.023L79.451,155.966L81.886,153.758L86.06,154.043L95.335,159.454L105.421,162.582L110.407,165.281L113.305,167.977L114.813,168.545L117.131,168.899L117.015,166.913L116.32,165.139L118.291,164.145L123.624,164.216L124.667,163.221L125.595,161.729L124.551,160.023L122.696,159.169L120.841,158.956L119.566,158.386L117.595,158.956L114.349,157.604L112.726,156.465L111.798,155.325L106.349,153.045L101.132,149.193L99.972,151.405L97.77,152.546L94.871,152.76L86.407,150.263L81.19,152.189L78.408,152.617L76.205,152.688L73.538,153.544L70.524,154.043L67.857,150.477L66.814,147.694L66.002,147.194L65.886,149.835L65.075,151.904L61.249,153.045L58.93,151.405L57.191,146.551L55.104,140.329L51.278,135.313L48.148,134.022L47.8,131.223L48.148,129.067L51.858,128.492L57.655,130.792L58.93,130.361L60.205,129.283L59.973,126.911L59.162,124.824L57.539,124.68L56.379,124.968L52.785,124.536L48.264,125.688L46.061,124.608L45.365,123.241L41.539,119.926L38.177,115.453L32.844,112.491L29.25,103.371L26.351,99.38L23.105,96.475L23.8,96.475L25.076,96.911L27.279,98.509L29.713,98.872L31.105,97.783L31.916,96.838L32.38,95.312L32.612,93.421L32.96,92.839L34.815,93.057L35.394,92.62L35.394,90.946L34.235,88.907L33.076,86.355L33.076,85.188L34.003,84.677L35.51,83.582L36.206,82.195L37.829,81.538L40.032,81.392L42.583,80.807L44.322,79.345L44.554,77.956L45.597,73.93L46.177,71.952L47.336,70.192L47.916,67.771L49.075,65.494L51.51,64.539L53.713,63.436L55.336,60.494L56.263,57.991L56.263,56.517L54.872,53.937L53.829,51.501L54.176,48.325L58.582,48.103L60.089,47.808L65.77,47.586L68.321,45.885L70.06,46.033L73.886,47.512L75.509,46.403L80.379,44.035L85.248,37.365L87.335,36.326L91.973,35.955L93.48,35.212L95.219,35.361L100.436,36.697L103.451,36.92L106.929,35.955L110.871,34.321L111.798,28.596L112.726,27.777L115.16,27.553L117.015,27.553L120.494,28L124.783,28.149L127.45,25.468L131.74,25.244L133.711,24.871L136.957,25.468L140.203,25.393L144.261,24.275L148.087,22.411L151.101,22.56L152.261,22.262L152.956,21.889L153.768,19.351L159.333,19.201L161.304,19.425L164.434,19.5L167.681,18.156L168.608,18.305L170.231,21.963L171.159,23.008L172.898,23.977L176.84,26.734L177.536,25.989L179.159,25.095L183.912,26.362L188.434,28.447L192.26,31.571L196.434,30.679L201.071,29.117L204.201,28.67L207.448,28.447L209.419,27.851L213.824,28.596L218.462,26.958L220.665,25.468L221.36,23.306L221.013,19.575L219.969,15.913L218.81,14.492L218.462,13.07L219.042,11.723L219.737,10.824L222.752,10Z" fill="none" stroke="currentColor" stroke-width="2" vector-effect="non-scaling-stroke" stroke-linejoin="round" stroke-linecap="round"/>
</svg>
