<svg viewBox="0 0 300 300" xmlns="http://www.w3.org/2000/svg">
  <path d="M13.415,135.783L14.055,135.339L14.527,135.054L15.437,134.823L16.448,134.645L17.358,134.663L18.639,134.681L18.673,131.583L18.808,131.315L18.976,131.173L19.178,131.101L19.347,131.137L19.617,131.6L19.954,131.583L20.291,131.315L21.1,131.511L21.706,131.387L22.347,131.565L23.425,131.565L25.38,131.493L26.458,131.511L27.166,132.01L27.941,132.545L28.784,132.616L29.964,132.563L30.806,132.349L31.211,131.85L31.514,131.369L33.3,130.655L35.188,130.084L35.727,130.031L35.896,130.352L35.794,130.923L36.03,131.458L36.772,131.797L37.311,131.868L37.783,131.797L38.12,131.636L38.895,130.78L39.3,130.602L39.805,130.62L40.378,130.209L40.378,129.906L40.007,129.763L39.704,129.317L39.771,128.959L39.67,128.441L39.738,127.959L39.974,127.601L40.412,127.243L40.142,126.528L39.502,125.149L38.828,123.374L38.086,121.902L37.176,120.608L36.704,119.654L36.738,117.547L36.671,117.114L36.367,116.862L35.929,116.717L35.323,116.934L34.783,116.97L33.637,116.916L33.064,116.699L31.548,114.587L31.345,113.756L31.312,112.906L31.851,111.421L31.986,110.025L32.053,108.737L31.986,108.374L31.683,107.938L31.143,107.611L29.761,107.538L28.11,107.102L26.863,106.356L25.987,105.901L25.751,105.592L25.65,105.246L25.852,103.679L26.256,101.909L26.56,101.361L27.065,100.794L27.436,100.411L28.009,99.898L29.627,98.214L31.076,95.867L31.952,94.232L32.424,93.754L32.896,93.331L33.57,92.835L34.379,92.374L35.154,92.393L35.929,92.816L36.468,93.295L36.671,94.38L37.075,95.078L37.513,95.5L38.053,95.72L38.794,95.665L41.693,94.416L42.67,94.177L45.029,94.012L46.681,93.534L48.096,93.037L48.265,92.135L48.838,90.753L50.523,88.963L50.995,88.15L51.5,86.615L52.04,85.227L52.512,84.634L55.174,83.094L57.769,81.682L58.207,81.031L59.893,78.089L60.836,76.073L61.106,75.438L61.645,73.679L62.252,71.936L63.061,71.542L64.847,70.867L66.263,70.228L66.97,69.476L67.409,68.818L67.341,68.179L66.937,67.407L67.038,66.955L67.105,66.521L68.116,65.597L70.071,62.877L71.217,61.533L71.622,61.533L72.801,60.794L73.981,59.979L73.913,59.618L73.745,59.125L73.105,58.916L72.902,58.327L73.037,57.51L73.61,55.264L73.475,54.616L72.835,52.555L72.97,51.981L73.239,51.389L73.981,50.604L74.958,49.953L78.059,48.4L78.699,48.228L79.778,47.825L80.452,46.999L80.519,46.288L80.25,45.865L79.609,45.269L78.396,44.73L77.284,44.268L75.43,44.325L74.453,43.921L74.217,43.632L74.082,42.648L74.251,40.988L73.981,40.833L73.543,41.026L72.565,40.833L71.352,40.852L70.914,40.388L71.15,39.827L71.082,39.092L70.88,38.375L70.712,38.22L70.139,38.046L69.229,37.444L68.487,36.688L68.083,36.164L67.948,35.814L67.982,35.581L68.521,34.92L69.161,33.986L69.363,33.188L69.465,32.603L69.262,32.174L68.689,31.647L68.083,31.199L67.847,30.789L67.813,30.203L68.049,29.44L68.79,28.873L70.071,28.325L70.408,27.659L70.341,27.169L70.004,27.012L69.094,27.012L67.577,26.836L67.308,26.561L67.139,26.208L67.139,25.835L67.476,25.423L67.847,24.893L67.779,24.382L67.341,23.792L66.263,23.378L66.128,22.768L66.296,22.276L66.633,21.566L66.937,21.053L67.678,19.652L68.555,19.335L69.667,18.881L70.846,18.367L72.7,18.742L73.61,18.94L75.43,19.375L76.947,19.731L78.531,19.829L79.171,19.81L79.879,20.244L81.632,20.974L83.081,21.369L84.058,21.349L85.474,20.698L86.182,20.106L87.159,19.454L88.372,19.494L91.035,18.485L91.541,18.643L92.35,18.703L93.293,18.129L93.765,17.436L93.866,17.08L94.102,16.842L95.113,16.386L96.124,15.791L96.428,14.977L96.596,14.441L97.708,13.726L98.888,12.99L100.101,12.233L101.483,11.356L102.663,10.619L103.607,10L103.64,10.04L103.708,10.14L104.112,10.419L104.517,10.539L104.988,10.279L105.595,10.08L105.898,10.2L105.932,10.539L105.561,12.173L105.595,12.83L106.202,14.143L106.977,16.307L107.718,18.327L108.123,19.632L108.561,20.185L110.314,20.738L111.763,21.191L112.639,21.921L113.583,22.63L114.257,23.064L114.56,23.634L114.628,24.126L114.594,24.48L114.223,24.912L112.538,26.071L112.336,26.424L112.302,26.895L112.639,28.325L112.841,29.206L112.875,31.003L113.01,32.681L113.583,33.46L114.089,33.947L114.358,34.414L114.965,35.017L115.47,35.484L115.909,35.756L116.111,36.358L116.01,37.076L115.807,37.697L115.875,38.026L116.212,38.259L116.751,38.879L116.819,39.789L116.785,40.408L116.987,40.968L117.054,41.586L116.886,43.13L116.92,43.767L116.92,43.844L116.448,43.882L116.043,44.113L115.47,45.095L114.83,45.346L114.089,45.423L113.347,44.826L112.707,44.21L112.538,43.863L112.403,43.208L112.066,42.764L111.392,42.976L110.415,43.053L109.37,43.208L109.168,43.342L109.134,43.632L109.404,44.21L109.64,44.98L109.741,46.057L110.044,46.769L110.145,46.999L111.83,49.129L112.269,49.57L112.37,49.838L112.235,50.623L111.931,51.522L111.999,52.249L112.538,53.032L113.01,53.586L112.572,54.33L112.302,55.188L112.606,55.588L112.437,56.825L112.572,57.054L112.909,57.149L113.414,57.073L113.92,56.73L114.358,56.673L114.594,56.768L114.965,55.835L115.268,55.702L115.841,55.95L117.021,57.719L118.032,59.201L118.301,59.485L118.504,59.656L119.481,60.434L120.155,60.927L121.065,60.737L122.279,60.718L123.02,61.192L123.424,61.514L123.458,61.571L123.526,61.571L124.975,62.744L125.615,62.65L126.02,62.99L126.155,63.803L125.952,64.672L126.02,65.069L126.66,65.144L128.042,65.71L129.289,66.201L129.929,66.37L130.603,66.728L131.21,67.331L132.39,68.085L133.435,68.668L133.67,69.458L133.266,69.288L132.727,69.364L132.154,69.721L131.884,69.946L130.637,71.298L129.963,71.711L129.356,72.311L127.975,74.147L127.199,75.849L126.593,77.436L126.626,78.574L126.39,79.896L125.817,80.659L125.447,80.901L125.009,82.054L124.705,83.372L124.874,83.799L125.615,84.374L126.323,84.949L127.267,85.542L128.143,86.134L128.716,86.208L128.851,85.875L129.053,85.56L129.727,85.727L130.502,86.301L131.008,86.745L131.244,86.893L132.592,87.651L133.738,88.28L135.153,89.074L135.524,89.572L135.828,90.089L136.502,90.771L138.119,91.988L139.535,92.853L140.681,93.552L141.557,94.049L141.962,93.975L142.433,93.699L142.838,93.552L143.276,93.699L143.984,94.067L145.635,95.225L147.152,96.106L148.837,95.959L149.275,96.088L149.612,96.913L149.815,97.72L151.668,98.269L152.915,98.507L154.297,98.965L155.005,99.295L155.747,98.874L155.881,98.507L156.488,98.288L157.465,98.398L159.285,99.02L160.061,99.221L160.701,98.617L161.881,98.324L162.521,98.013L163.802,98.691L166.161,99.533L167.374,100.045L167.678,100.557L167.779,101.05L167.779,102.238L168.082,102.767L170.441,103.971L171.217,104.463L171.857,104.627L172.194,104.645L172.43,104.809L172.666,105.483L172.834,105.646L173.273,105.81L173.778,105.919L175.295,105.319L176.34,104.882L177.081,104.991L177.587,105.483L177.654,106.211L177.924,106.974L178.463,107.338L179.036,107.393L180.451,106.865L181.597,107.265L182.642,107.411L183.822,107.665L184.26,107.847L185.473,108.483L186.956,109.118L187.529,109.046L189.889,107.847L190.091,107.992L190.596,109.136L191.304,109.536L192.45,109.898L193.63,109.245L194.54,109.427L195.686,109.499L196.764,109.173L197.708,109.1L199.056,109.663L199.359,109.536L199.629,109.173L200.168,107.538L200.64,106.083L200.573,105.209L200.168,103.952L199.056,102.292L198.955,101.781L199.326,98.892L199.764,97.225L200.101,96.418L200.505,95.298L200.573,94.765L200.505,94.306L200.135,94.012L200.033,93.644L200.135,93.35L200.438,93.184L201.685,92.963L203.1,92.522L203.673,92.282L204.078,92.025L204.516,91.656L204.92,91.656L206.201,92.209L206.639,92.559L206.875,93.626L207.044,94.03L206.875,95.096L206.134,97.701L206.269,98.672L206.909,99.368L207.448,99.862L207.381,100.063L206.235,100.904L206.033,101.343L206.269,101.781L206.74,102.146L206.943,102.511L207.145,103.606L207.718,103.898L208.864,104.608L209.875,105.118L211.594,104.791L212.066,105.009L212.908,105.264L213.582,105.337L213.953,105.519L214.189,105.683L214.155,105.919L214.189,106.138L215.133,106.192L215.638,106.32L217.29,106.083L218.975,105.774L219.75,104.791L220.121,104.718L221.065,104.353L222.042,104.754L223.087,105.337L223.66,105.501L224.772,105.592L225.851,105.519L228.446,105.264L229.895,105.392L231.21,104.59L231.479,104.59L232.052,105.209L233.501,105.264L234.243,104.973L235.085,104.736L235.625,104.663L236.029,104.663L236.535,104.718L237.04,104.499L237.242,104.08L237.209,103.46L236.838,102.767L236.535,102.365L236.501,102.146L236.602,101.653L236.838,100.941L237.344,100.136L236.973,99.35L236.467,98.453L236.097,98.361L235.153,98.581L234.142,98.526L233.367,97.995L232.76,97.316L232.625,96.748L232.794,96.051L233.063,95.427L233.131,95.188L233.872,95.188L234.917,95.316L235.726,95.5L236.366,95.5L237.512,94.674L238.051,94.637L238.658,94.471L238.894,94.324L239.096,94.435L239.77,94.545L240.444,94.49L241.051,94.269L241.691,93.92L242.77,93.184L243.006,92.761L243.006,92.374L242.804,92.117L242.601,91.988L242.669,91.656L243.141,91.085L244.826,90.218L246.241,89.166L247.05,88.372L247.387,87.411L247.859,86.356L248.297,85.949L249.308,85.69L252.14,85.301L253.05,84.875L254.364,84.096L255.038,83.484L255.409,82.982L255.443,82.425L256.319,82.24L257.094,81.347L258.038,80.436L259.656,79.673L261.105,78.63L261.61,78.797L262.15,79.282L262.419,79.822L262.487,80.101L264.34,80.436L264.644,80.38L265.992,80.864L267.273,81.459L267.947,81.608L268.284,81.589L268.587,81.403L268.924,80.883L269.261,80.51L269.497,80.362L269.463,79.766L271.283,78.63L272.935,77.79L274.35,77.193L274.755,77.436L275.227,77.902L275.833,79.058L276.204,79.356L277.182,79.189L277.35,79.319L277.182,79.729L276.541,80.25L275.699,80.734L275.159,81.106L275.328,82.37L275.294,82.815L275.53,82.945L277.249,81.701L278.092,81.44L278.395,81.738L278.462,82.425L279.17,83.799L279.44,84.504L277.721,86.19L277.08,87.059L277.114,87.355L277.08,87.651L276.609,88.095L276.642,88.261L277.013,88.538L277.451,88.742L277.653,88.723L278.024,88.317L279.642,87.744L280.114,87.855L281.26,88.742L281.799,88.797L283.181,89.056L284.091,88.723L284.731,89.019L286.079,90.126L286.383,90.329L286.282,90.993L286.214,91.73L286.551,92.319L286.585,92.835L286.518,93.295L286.248,93.626L285.473,93.81L284.866,94.361L283.821,95.188L283.012,95.831L282.439,96.418L282.203,97.005L282.271,97.775L282.439,98.562L284.327,101.471L284.327,101.982L283.72,102.128L282.945,101.799L282.237,101.324L281.496,100.081L280.855,99.697L280.249,99.624L276.575,100.264L275.8,100.447L274.586,100.904L273.744,101.854L273.137,102.712L272.497,103.04L271.553,103.715L268.992,105.756L267.509,106.629L266.531,106.956L265.857,107.411L265.486,108.174L265.217,108.701L265.116,110.025L265.284,111.657L265.655,112.707L265.857,112.924L265.891,113.231L265.52,113.792L265.014,114.262L264.779,114.569L264.576,116.05L264.138,116.772L263.363,117.835L262.655,118.646L261.543,119.276L261.105,119.78L260.7,120.715L260.464,121.506L260.464,121.794L260.599,122.045L261.037,122.333L261.61,122.602L261.88,123.015L261.914,123.517L261.509,124.737L260.768,126.438L259.892,127.762L259.015,129.031L258.813,129.459L258.038,131.012L257.33,133.151L256.892,134.592L256.487,135.588L255.982,135.623L255.375,135.303L253.926,134.894L253.016,134.557L252.308,134.254L251.836,134.254L251.196,134.468L250.556,134.592L250.151,134.45L249.241,133.56L248.971,133.667L248.803,134.094L249.41,136.636L249.814,137.577L249.747,139.138L249.578,141.069L249.342,143.173L249.207,143.668L248.803,144.216L248.297,144.375L247.826,144.145L247.455,144.198L247.354,144.551L247.455,145.469L246.983,146.492L246.646,147.391L246.747,148.254L246.916,149.117L247.455,151.016L247.455,151.701L247.354,152.333L247.05,152.579L246.578,152.544L246.343,152.807L246.14,153.193L245.601,154.614L245.062,154.772L244.556,154.561L243.781,153.597L243.309,153.316L243.006,153.334L242.871,153.597L242.669,154.158L242.467,154.544L241.927,154.877L241.826,154.176L241.557,150.506L241.321,149.345L241.152,147.726L240.916,147.232L240.579,146.333L240.242,145.575L239.939,145.24L239.77,143.809L239.703,142.059L239.703,141.228L239.265,139.51L238.86,137.559L238.321,137.63L237.984,137.169L237.748,137.169L236.973,137.612L236.366,137.47L235.894,137.524L235.894,138.429L235.995,139.386L235.793,139.723L234.58,140.856L234.277,141.599L234.31,142.395L234.445,143.438L234.243,143.986L233.704,144.481L232.996,144.728L232.389,144.604L231.985,144.18L231.614,143.085L231.277,142.484L230.94,142.342L230.67,142.502L230.637,143.191L230.637,143.774L230.569,143.827L230.367,143.739L230.165,143.456L229.592,140.714L228.749,138.606L228.715,137.79L228.985,136.743L229.356,135.126L230.333,134.13L230.468,133.702L230.637,133.364L230.872,133.293L232.12,133.382L232.558,133.222L232.928,132.741L233.468,132.367L234.007,132.206L234.445,132.153L235.119,132.527L235.422,132.313L235.625,131.636L235.928,130.976L236.097,130.655L236.568,130.513L237.175,130.477L237.344,130.352L237.512,130.12L237.647,129.245L238.422,127.261L238.692,126.384L238.725,126.241L238.692,125.256L238.928,125.113L240.175,125.597L240.714,125.579L241.017,125.382L241.118,125.023L240.95,124.611L240.074,123.876L238.49,122.889L237.04,122.279L234.344,122.368L231.681,122.566L230.906,122.458L229.929,122.189L227.569,122.225L224.671,122.386L223.592,122.297L223.019,122.297L221.941,122.404L220.188,122.117L218.941,121.758L217.863,121.363L216.582,121.003L216.279,121.003L216.11,120.877L215.975,120.554L215.942,120.14L216.211,118.232L215.975,115.328L216.178,114.262L215.133,111.874L214.762,111.421L214.256,111.403L213.953,111.711L213.852,112.272L214.021,112.906L213.616,113.593L212.841,113.828L211.931,113.593L211.189,113.267L210.212,112.544L209.504,111.548L209.437,110.442L209.1,109.717L208.662,109.372L208.325,109.281L208.021,109.354L207.752,109.735L207.988,110.134L208.291,110.678L208.19,111.041L207.92,111.095L207.516,110.932L206.875,111.022L206.235,110.732L205.864,110.714L205.493,110.606L205.493,109.971L204.92,109.154L203.977,108.247L203.033,107.683L202.561,107.756L202.359,108.392L202.393,108.61L202.73,108.737L203.202,109.1L203.303,109.463L203.235,109.808L202.662,110.406L202.224,110.968L201.314,111.801L200.539,112.743L200.337,113.466L200.033,114.117L199.899,114.822L200.101,115.31L200.505,115.617L201.483,115.851L202.528,116.79L203.336,118.088L203.808,118.466L204.685,118.898L206.302,118.952L206.572,119.312L206.808,120.248L207.111,120.572L207.954,121.021L208.021,121.345L207.819,121.722L207.448,122.009L206.774,122.207L206.1,122.279L205.46,122.171L204.482,122.081L203.37,122.081L202.595,124.432L202.056,125.256L201.719,125.238L200.876,124.844L200.505,124.916L199.528,126.993L199.393,127.494L199.326,127.869L199.865,128.673L200.472,129.334L201.213,129.584L201.786,129.388L202.258,129.656L202.831,130.316L203.775,130.762L205.123,130.976L205.898,131.493L205.965,131.939L205.932,132.402L205.797,133.596L205.662,134.29L204.954,136.103L204.415,137.648L204.685,138.393L204.887,138.695L205.055,138.925L205.628,139.51L206.033,140.077L205.696,141.546L205.898,141.936L206.673,142.183L207.516,142.378L207.819,142.625L207.078,144.11L207.246,145.151L207.549,146.122L207.752,147.708L207.785,147.867L207.718,148.272L208.223,149.486L208.931,151.877L208.999,152.772L208.965,153.72L208.729,155.297L207.988,155.28L208.662,156.331L208.864,157.101L208.965,158.151L208.156,158.273L207.617,158.151L207.145,157.241L206.909,158.081L206.1,158.85L205.797,158.465L205.628,158.063L205.595,157.346L206.033,154.596L205.965,154.298L205.729,154.088L205.291,153.983L205.123,153.421L204.415,156.348L204.718,157.538L204.583,158.098L203.303,158.553L201.988,157.451L201.82,157.101L201.719,157.713L201.483,158.465L200.269,158.325L199.629,157.748L200.033,156.733L200.809,154.333L200.943,153.246L199.932,152.456L199.056,151.982L198.55,150.875L198.753,152.087L199.225,152.509L199.899,152.807L200.606,153.421L200.101,154.176L199.595,154.649L198.618,156.418L197.472,157.416L196.09,158.151L191.641,159.252L190.697,159.689L189.316,161.05L188.439,162.341L188.271,163.649L188.776,165.059L189.181,167.268L189.518,167.72L189.046,168.536L188.203,169.387L187.529,170.532L187.597,171.173L187.428,171.589L185.069,173.01L184.563,173.823L183.923,174.654L183.148,174.187L182.676,174.187L183.316,174.844L183.215,175.276L183.013,175.518L182.406,175.76L179.002,176.797L176.407,177.781L175.666,177.729L175.8,177.436L176.272,177.177L176.238,176.037L175.733,175.829L175.328,175.76L173.34,177.125L172.565,178.489L172.733,178.748L173.171,178.679L174.486,177.919L175.126,178.126L175.16,178.437L173.138,179.61L168.891,183.399L168.689,184.156L168.116,184.998L167.374,185.788L165.992,187.711L163.364,190.574L162.656,191.635L158.443,193.825L157.668,194.492L155.949,196.627L154.162,198.367L152.073,199.815L148.5,201.655L146.309,203.39L145.635,204.546L145.568,204.971L145.804,205.531L146.208,206.041L146.309,206.465L146.107,207.212L146.006,207.619L145.366,208.637L144.253,209.366L140.715,210.89L140.243,210.84L137.344,210.535L136.266,210.823L135.828,211.534L134.816,214.477L133.873,215.255L133.502,215.964L133.367,216.454L132.794,216.437L132.322,216.218L131.952,216.387L131.547,215.39L130.839,215.187L130.266,215.12L127.806,216.116L126.963,216.91L125.177,220.672L124.705,223.097L125.143,225.771L125.75,227.905L125.885,228.862L125.817,230.121L125.48,230.725L125.278,231.446L125.548,232.921L126.323,234.863L126.492,235.667L126.525,236.52L127.098,238.443L126.694,238.108L126.39,237.289L125.683,236.252L124.806,237.289L125.278,238.025L126.93,238.911L127.435,239.646L126.357,246.085L125.548,248.383L124.57,249.88L124.031,250.446L122.885,252.806L122.076,255.663L121.908,256.774L122.279,258.002L121.874,258.715L121.335,259.278L122.346,259.03L122.683,259.693L122.784,260.389L122.818,264.461L122.717,268.71L121.942,268.892L121.099,268.925L120.357,268.809L119.818,268.644L118.504,268.875L117.796,269.338L117.223,270.114L117.257,271.451L114.83,274.8L114.291,275.904L114.089,276.975L114.426,277.536L115.032,278.112L115.841,278.343L117.425,278.573L118.2,278.886L118.706,279.446L116.852,278.853L114.661,278.721L109.437,280.286L108.056,281.372L107.28,282.31L106.775,284.464L106.674,285.91L106.067,287.11L103.337,288.949L101.618,289.508L100.978,290L98.955,289.36L96.731,287.75L95.821,286.88L92.552,282.721L91.945,282.194L91.305,280.417L91.17,279.742L91.001,279.479L90.698,279.298L90.53,279.034L89.822,276.992L89.518,274.849L89.047,272.474L89.417,272.639L89.99,273.415L90.26,274.569L90.294,276.152L90.698,276.333L91.069,276.185L90.024,272.524L89.08,271.616L88.844,271.55L88.608,270.956L88.575,270.229L88.642,269.866L87.934,268.677L87.665,267.95L86.047,264.312L85.305,261.714L84.193,258.814L83.452,257.786L82.306,255.546L81.362,254.501L80.351,253.105L79.542,252.474L79.239,252.158L76.879,247.301L76.172,244.602L75.565,243.335L75.262,242.367L74.419,238.242L74.419,237.507L74.318,236.687L73.745,234.93L72.7,233.038L72.397,231.865L72.431,231.395L71.756,229.55L71.622,228.711L71.183,227.922L70.678,227.217L70.139,226.645L68.892,224.763L68.42,224.308L67.577,223.097L66.97,220.84L66.195,219.964L67.409,219.964L66.667,219.138L66.296,218.598L65.892,218.26L66.465,217.417L65.555,217.433L65.049,216.927L64.375,215.356L63.128,213.581L62.926,212.617L61.847,209.62L60.937,202.386L60.061,199.168L60.129,198.247L59.117,195.431L58.612,193.552L58.41,191.961L58.14,190.916L57.904,188.843L57.5,188.174L57.466,187.78L57.736,186.836L58.477,185.376L58.747,184.448L58.41,183.124L57.736,184.499L57.129,184.895L56.826,183.863L56.826,182.487L56.758,182.143L56.927,181.678L58.578,181.902L56.691,181.058L56.489,180.558L56.387,180.179L56.792,179.489L56.118,178.92L55.848,177.142L55.646,176.728L55.579,176.4L55.949,173.944L57.567,169.092L57.702,167.998L57.533,166.433L57.196,165.198L57.028,163.875L56.927,163.544L56.354,163.422L55.815,162.934L55.174,160.981L55.747,160.352L56.185,159.985L55.579,160.143L55.073,160.09L56.05,159.182L56.893,158.5L58.882,157.696L59.724,157.171L58.477,157.643L57.196,157.818L54.399,157.713L54.871,155.893L55.343,155.28L55.882,154.947L55.107,155.052L54.197,154.894L54.5,153.035L55.208,152.649L55.949,152.561L56.893,152.298L55.882,152L54.837,151.842L53.59,152.158L52.444,151.929L51.029,151.929L51.602,152.175L52.174,152.755L51.905,153.755L51.602,154.386L50.826,154.807L50.22,155.473L50.017,156.033L49.68,156.453L50.287,156.733L50.927,156.943L51.298,157.398L51.736,158.081L51.703,159.392L50.051,162.481L49.478,163.161L45.299,165.024L43.681,166.033L40.176,167.337L38.828,167.581L37.345,167.32L35.12,166.329L31.784,163.77L30.907,162.934L28.245,159.636L26.324,157.906L24.841,156.278L23.021,154.737L21.302,152.667L20.965,151.719L21.066,150.77L21.706,150.242L22.448,150.453L23.054,151.262L23.459,151.631L23.83,151.771L26.391,150.524L27.368,150.576L28.043,149.961L28.885,150.084L30.638,149.117L31.379,149.064L32.255,148.87L33.671,146.404L34.716,144.834L35.39,144.498L35.356,144.11L35.188,143.615L34.648,143.739L34.311,144.216L34.042,144.798L33.772,145.134L32.963,144.816L32.39,144.869L31.716,145.063L29.188,145.981L28.144,146.809L27.47,146.968L23.459,146.069L19.515,143.986L17.864,142.59L16.819,140.821L15.774,138.695L16.111,138.109L17.729,136.831L19.145,135.837L17.898,136.281L16.516,136.902L15.842,137.328L15.1,138.233L14.055,138.446L13.685,137.098Z" fill="none" stroke="currentColor" stroke-width="2" vector-effect="non-scaling-stroke" stroke-linejoin="round" stroke-linecap="round"/>
</svg>
