<svg viewBox="0 0 300 300" xmlns="http://www.w3.org/2000/svg">
  <path d="M25.411,47.812L26.14,48.542L27.842,49.328L32.299,48.262L35.054,47.25L37.08,46.126L38.295,46.351L42.671,47.981L44.13,47.138L47.29,44.945L47.776,43.763L50.207,40.212L50.288,39.366L49.235,37.107L49.559,36.654L52.638,34.335L54.178,32.296L55.798,30.936L56.933,30.936L57.257,31.389L57.419,32.353L57.257,36.259L57.743,37.446L60.174,40.269L61.876,41.847L65.847,42.918L66.009,43.481L64.955,45.564L67.386,48.093L67.791,49.89L68.926,50.955L70.466,50.451L70.952,49.441L70.385,47.756L69.898,45.957L69.979,44.945L70.466,43.763L71.519,42.129L74.517,38.293L75.571,36.146L75.814,32.693L75.814,29.971L76.786,29.29L78.893,29.801L79.541,29.745L79.865,31.446L80.757,34.109L81.81,35.467L82.945,35.806L84.322,35.806L87.645,34.165L89.833,33.486L91.048,33.656L91.777,34.788L93.398,37.728L94.289,38.011L95.343,37.672L95.748,37.22L95.343,36.089L94.938,33.656L94.289,31.73L93.479,30.879L93.317,29.688L93.803,27.644L94.37,25.881L95.505,25.426L96.882,25.199L98.584,27.018L100.61,27.644L102.15,27.53L102.393,26.45L102.312,25.256L101.42,23.776L101.582,21.44L102.636,17.159L103.203,17.501L105.472,17.559L107.984,17.787L109.524,19.557L111.063,20.128L113.332,20.299L114.791,20.071L115.52,19.443L116.412,17.387L117.951,14.814L120.463,13.554L124.677,13.268L126.865,12.81L129.053,12.867L130.673,13.268L132.375,13.211L136.751,11.434L141.289,10L141.937,10.23L142.018,10.746L141.208,11.778L140.398,13.211L140.965,14.871L143.477,18.13L144.854,20.641L146.232,22.523L148.258,23.491L150.932,24.118L153.201,24.345L155.632,25.028L163.735,26.791L167.868,27.246L171.028,27.359L175.728,28.496L175.242,30.369L174.351,30.822L172.649,31.956L170.704,33.429L169.002,35.127L168.516,36.937L169.002,38.124L169.489,38.519L170.137,38.18L171.028,38.406L172.244,39.027L174.189,39.704L174.27,40.325L173.864,41.115L172.325,42.524L170.947,44.157L170.785,45.114L170.947,45.845L171.433,46.295L173.459,46.07L173.783,46.688L172.811,50.787L173.135,51.516L174.918,52.189L176.214,53.141L178.645,55.772L179.699,57.896L178.97,58.566L177.43,58.957L176.214,58.734L177.592,57.449L174.107,52.861L172.568,52.861L170.461,54.821L164.627,52.805L163.492,53.645L162.682,55.212L160.656,57.169L157.82,58.008L154.578,60.129L151.256,61.635L148.663,62.805L147.204,62.582L149.554,60.129L148.501,60.073L145.422,61.802L143.639,63.306L143.072,65.755L142.504,69.867L143.882,70.921L146.313,76.293L149.23,78.559L148.663,80.767L147.934,82.476L146.151,83.963L144.611,82.862L143.72,82.862L143.072,86.385L144.368,95.601L146.394,102.101L148.42,104.88L153.039,109.285L157.901,111.565L166.652,118.928L171.433,121.196L172.649,122.491L175.566,128.092L178.078,134.587L180.752,144.688L182.697,149.692L186.587,155.265L194.69,163.253L201.983,169.103L208.79,172.678L214.138,173.308L226.698,172.52L228.886,172.836L231.236,173.833L231.722,176.299L230.912,177.976L228.238,179.704L225.564,182.11L225.24,185.4L227.752,187.695L239.907,193.784L252.305,198.869L256.195,201.459L260.651,205.492L271.51,211.01L273.293,213.687L279.937,219.388L282.855,223.846L283.422,227.271L282.044,230.691L281.396,233.138L280.261,235.582L277.425,234.666L274.265,232.17L269.484,222.105L260.732,221.08L258.95,220.311L255.789,218.568L255.627,217.438L254.817,216L254.088,215.487L250.684,215.178L248.415,216.822L245.66,220.721L242.581,226.301L239.421,234.462L239.258,237.717L240.96,240.917L246.065,242.692L249.955,245.529L252.548,248.463L252.791,255.528L253.926,259.555L252.224,261.816L248.901,261.264L244.526,262.72L241.365,265.279L240.069,267.734L240.393,274.134L239.745,276.529L233.829,281.112L230.75,285.784L229.94,287.72L228.805,289.95L221.269,290L219.567,287.273L219.486,283.251L220.783,280.764L223.538,279.569L225.321,274.384L224.753,270.637L225.888,268.986L226.86,267.834L228.967,267.133L231.965,266.482L232.209,261.213L229.94,258.8L229.129,255.478L227.995,249.221L224.186,241.272L222.16,234.156L220.621,230.64L218.19,228.752L213.814,228.803L211.626,228.293L203.847,223.283L203.361,222.515L203.361,221.234L204.657,219.183L203.847,216.514L202.874,213.944L201.416,211.731L199.714,210.598L196.23,211.319L195.014,211.834L192.826,211.628L191.125,212.607L190.152,212.658L192.826,208.794L192.097,207.918L189.423,206.318L185.776,206.06L184.804,205.853L184.156,206.886L183.507,206.318L183.588,204.613L179.294,196.847L176.457,193.68L175.08,193.108L172.487,193.784L168.111,192.38L165.518,192.068L164.14,192.432L161.952,193.42L160.899,192.796L160.494,191.756L156.604,188.477L151.661,186.652L142.099,176.351L139.182,172.468L133.104,168.208L129.296,161.933L126.136,159.66L121.598,157.808L120.544,158.02L119.167,158.708L118.113,158.814L117.303,158.02L118.113,157.173L119.086,156.802L118.762,154.417L113.575,148.149L110.496,146.18L109.686,144.901L109.038,143.195L108.389,142.128L106.931,141.434L105.715,141.594L104.013,141.167L104.094,138.12L104.419,135.819L104.176,133.837L102.555,128.683L99.638,124.27L98.017,113.733L96.639,110.751L93.479,108.47L86.348,105.969L76.462,99.1L74.355,98.99L68.359,96.312L64.631,95.874L59.85,98.226L54.016,104.825L49.235,111.619L47.533,112.975L41.456,115.304L36.026,116.387L35.945,114.654L35.783,113.354L36.675,111.89L38.214,110.208L39.592,108.035L40.159,106.513L39.916,105.479L39.268,103.954L38.376,103.845L33.271,105.098L32.056,104.771L28.247,102.81L24.195,100.301L22.656,98.553L22.088,96.804L22.494,95.656L22.17,94.561L21.359,93.082L22.088,91.383L23.385,89.242L24.033,87.814L25.087,87.429L25.573,86.55L24.763,83.027L24.276,82.476L23.547,82.035L22.413,81.98L20.468,81.263L19.009,80.049L18.685,78.393L17.956,76.846L16.659,75.353L16.578,73.803L17.956,72.972L19.982,72.916L21.359,73.249L24.519,70.699L25.654,70.477L26.707,69.922L27.518,66.423L28.247,65.366L28.409,64.754L27.761,64.03L25.249,61.523L24.033,58.957L22.251,56.107L20.549,54.821L20.225,53.813L20.144,52.525L20.549,51.46L23.547,49.721ZM147.366,173.728L147.366,173.518L147.123,173.518L147.123,173.676L147.123,173.781ZM148.42,112.216L149.068,110.588L148.825,109.448L147.366,109.665L146.394,111.131L147.042,112.432Z" fill="none" stroke="currentColor" stroke-width="2" vector-effect="non-scaling-stroke" stroke-linejoin="round" stroke-linecap="round"/>
</svg>
