<svg viewBox="0 0 300 300" xmlns="http://www.w3.org/2000/svg">
  <path d="M135.167,141.879L134.705,142.362L133.782,142.201L133.243,141.488L133.435,140.682L134.397,140.061L135.282,141.304ZM188.343,120.197L187.343,120.244L187.073,120.103L187.689,119.774L187.728,119.21L188.112,118.222L188.112,117.916L187.304,117.869L187.343,116.738L187.958,115.606L189.613,113.835L190.036,113.503L190.113,114.284L189.613,116.101L189.498,116.762L190.806,116.903L189.959,119.092ZM151.866,166.941L150.712,168.041L149.711,167.973L149.211,167.48L149.057,166.873L150.019,165.907L150.827,164.558L151.558,163.95L152.174,163.612L152.636,163.635L151.597,165.525ZM105.808,217.851L104.577,218.109L103.923,217.83L103.307,216.304L104.461,215.335L106.039,216.282L106.347,216.562ZM109.425,216.196L108.502,216.325L108.463,215.594L109.194,213.978L109.271,212.793L109.964,211.282L110.272,210.957L110.502,210.828L110.733,211.303L110.464,213.138L109.771,214.539ZM100.036,193.26L99.19,193.699L99.075,193.282L98.728,193.085L99.344,192.47L99.344,192.207L98.921,191.789L99.382,190.229L99.267,189.569L100.96,189.305L101.268,189.943L101.306,191.855ZM91.456,169.072L90.763,169.588L90.455,168.803L90.763,166.514L92.072,166.986L92.072,167.682ZM92.61,166.087L92.379,166.716L91.648,166.289L91.34,165.885L91.995,163.927L91.918,163.161L91.956,162.801L93.303,161.786L93.534,161.966L93.611,162.26L93.495,162.711L93.572,163.68L92.533,165.278ZM84.915,186.241L85.299,186.572L85.915,186.374L86.415,186.33L86.762,186.506L87.185,187.389L87.339,187.918L86.569,187.984L86.223,188.094L85.8,188.755L85.184,188.512L84.799,188.204L84.722,187.785ZM103.23,190.801L102.307,190.867L101.883,190.713L101.729,190.317L103.076,189.503L104.077,189.635L103.653,190.383ZM217.509,12.696L217.086,13.672L216.548,12.221L216.432,10.688L216.74,10.688L217.356,10.926L217.471,11.666ZM219.895,15.937L219.164,16.042L218.279,15.411L218.164,14.621L218.818,13.989L219.433,14.226L220.049,15.042L220.241,15.463ZM200.502,60.79L200.271,60.865L200.002,60.74L199.771,59.665L199.964,59.089L200.656,58.688L201.31,58.563L200.772,60.565ZM145.671,164.423L145.479,164.67L145.286,164.603L144.594,165.188L144.44,164.625L143.94,164.243L143.863,163.95L145.402,163.747L145.902,163.905ZM200.233,161.267L200.117,161.876L199.54,161.741L199.271,161.334L199.309,160.612L199.925,160.612ZM89.301,185.513L89.032,185.645L88.685,184.497L88.455,184.099L88.839,183.877L89.647,181.797L89.801,182.616L90.109,183.435L90.417,183.568L90.109,184.165L89.647,184.386ZM93.726,180.644L92.995,181.243L92.418,181.243L92.918,180.533L92.995,180.2L93.418,179.246L94.226,178.912L94.573,178.868L93.918,179.845ZM96.997,173.903L96.227,174.438L95.688,174.014L95.958,172.876L96.15,172.496L96.766,172.876ZM126.702,169.184L126.394,169.7L125.47,169.543L125.855,169.095L126.124,168.557L126.355,168.444L126.509,169.027ZM123.393,171.378L123.893,171.848L125.124,171.647L125.278,171.781L124.932,172.206L124.393,172.63L123.393,172.317L122.777,172.295L122.7,171.602L122.777,171.334ZM96.15,200.476L95.804,200.694L96.035,199.713L96.881,198.84L96.958,199.407ZM229.438,262.176L229.245,262.197L228.553,260.93L228.745,260.868L229.13,261.055L229.592,261.802ZM246.907,30.978L248.253,31.056L248.869,31.004L249.869,31.211L253.948,33.482L255.179,33.765L256.449,33.791L257.334,33.611L258.104,32.992L260.566,30.254L263.144,27.742L263.452,27.845L263.452,28.545L263.26,29.297L262.105,31.598L260.836,34.666L260.566,36.209L260.989,37.724L261.759,38.98L262.413,40.669L263.144,43.043L264.145,43.323L264.683,43.374L265.722,42.66L266.684,41.767L267.531,41.665L268.377,41.818L267.223,42.431L266.146,43.196L265.222,44.648L264.876,44.902L263.798,44.826L263.183,44.877L261.951,45.487L260.836,46.173L259.797,47.011L258.642,47.443L257.411,47.544L255.526,48.229L254.294,48.28L252.024,47.697L250.908,47.849L248.484,49.192L246.252,51.139L244.329,53.31L242.712,55.927L242.058,57.284L241.674,58.788L241.597,59.79L241.443,60.74L241.096,61.415L240.635,61.965L239.288,61.64L237.095,60.265L232.862,58.237L228.36,55.148L225.821,53.587L221.088,54.066L216.586,57.033L216.163,56.782L214.47,54.745L213.623,53.94L212.623,53.713L211.892,53.738L211.161,53.889L210.16,54.922L209.775,55.676L209.506,56.53L209.429,57.133L209.545,57.735L210.506,59.064L211.699,60.065L212.2,60.265L213.354,60.19L213.893,60.29L215.778,62.289L217.894,64.134L218.356,64.757L217.586,65.404L216.74,65.727L215.739,65.652L214.778,65.404L213.085,64.607L212.392,65.279L211.276,66.671L210.66,68.161L210.16,68.855L208.929,69.746L207.621,70.217L206.967,70.068L206.428,69.499L206.158,68.83L206.005,68.037L206.274,66.324L206.928,64.782L207.197,63.212L206.659,60.99L206.312,60.54L204.927,59.214L204.273,57.961L204.119,56.38L204.196,55.5L204.542,53.562L204.889,52.579L205.504,52.251L206.197,52.049L207.274,51.367L208.429,50.457L209.545,49.42L210.66,48.128L211.238,46.732L210.276,45.004L210.083,43.986L210.237,43.017L211.238,42.507L212.276,42.89L214.393,44.317L214.816,44.444L216.24,44.52L218.202,44.826L219.356,44.75L219.895,44.546L220.742,43.374L221.126,41.869L220.972,39.953L220.972,38.032L221.511,36.466L223.166,33.92L223.627,32.45L223.781,28.805L224.397,27.197L224.859,25.534L225.09,22.016L224.435,18.641L223.743,16.962L222.973,15.384L223.089,13.857L223.704,12.459L223.704,12.036L223.858,11.666L225.051,11.376L225.59,11.085L226.129,10.397L226.744,10L227.206,10.397L227.591,11.085L229.245,12.802L231.862,15.858L234.94,20.474L236.864,22.721L238.903,24.753L241.173,26.807L243.597,28.597L245.098,29.426L246.214,30.771ZM111.734,175.776L113.157,176.154L113.773,176.177L114.312,176.021L115.197,175.508L116.082,175.13L116.736,175.33L117.275,175.776L117.582,176.399L117.428,177.067L116.428,178.468L115.582,179.978L117.505,180.267L119.429,180.245L118.968,181.176L118.929,181.974L119.506,182.373L120.006,182.882L119.853,183.347L119.583,183.811L120.622,184.519L120.545,184.983L120.276,185.469L117.659,188.667L116.89,190.273L116.39,192.053L115.889,193.348L115.543,194.685L115.235,196.13L114.773,197.617L114.927,198.949L114.773,200.301L113.465,203.632L112.503,203.567L111.349,203.176L110.618,203.241L110.233,203.98L110.887,205.5L108.809,207.301L106.501,208.514L106.462,207.951L106.693,207.517L107.039,207.17L107.27,206.759L107.617,205.327L107.424,203.915L106.732,202.11L106.693,201.478L107.155,201.217L107.501,201.13L107.655,200.89L107.694,200.301L107.463,199.843L106.809,199.713L106.154,199.691L105.731,200.367L105.116,201.652L104.808,202.936L104.923,203.654L105.192,204.284L106.039,205.348L105.808,205.978L105.462,206.455L102.499,205.37L101.845,205.283L101.306,205.044L100.729,203.589L101.96,203.241L102.307,203.067L102.422,202.588L102.614,201.173L102.037,199.974L101.576,199.56L101.152,199.058L101.422,198.054L101.268,196.786L101.229,195.013L101.46,194.707L102.576,194.356L103.384,193.392L104.115,192.316L105.154,190.405L106.001,188.336L105.192,188.226L104.5,187.851L105.231,186.859L105,185.623L103.884,184.099L103.23,182.306L102.23,181.509L101.691,181.22L101.037,181.642L100.498,182.151L100.998,183.324L100.96,184.342L101.037,185.38L101.537,185.425L102.153,185.182L102.653,185.358L102.922,185.888L102.999,186.595L102.807,187.278L102.345,187.609L101.768,187.587L101.229,187.212L100.768,186.683L99.729,186.396L98.651,187.014L97.574,188.292L96.689,188.931L97.112,188.006L97.305,186.97L96.881,186.264L95.842,185.071L95.611,184.386L95.535,183.546L95.727,182.727L96.804,183.678L97.343,184.85L98.113,185.358L99.075,185.38L98.343,183.634L98.074,183.192L96.997,182.417L95.573,181.11L94.688,180.466L94.996,179.09L95.535,178.824L95.996,178.89L97.497,179.379L97.651,178.69L97.42,178.335L97.305,177.89L98.305,177.312L99.921,176.822L100.267,176.577L100.575,176.088L100.96,175.843L102.114,175.843L103.076,175.375L103.846,174.081L104.038,173.39L104.346,172.787L106.308,171.759L106.809,171.602L108.117,171.736L109.348,172.317L109.964,173.546L110.464,174.884ZM145.748,167.345L147.21,167.884L148.711,167.749L148.711,170.103L148.903,170.886L149.327,171.602L149.134,172.63L149.827,172.988L147.788,174.148L145.941,175.709L145.171,176.756L144.517,177.868L144.094,179.046L143.863,180.333L143.247,179.823L141.477,177.757L140.361,177.178L138.553,176.889L137.976,176.956L134.282,178.89L133.782,180.289L132.781,182.417L132.319,183.125L131.781,183.324L131.396,183.678L130.973,185.491L129.818,186.617L129.126,186.639L127.933,186.33L127.394,186.506L128.125,184.718L126.971,184.519L125.817,184.541L125.817,183.391L125.124,182.727L125.624,181.863L125.624,181.176L125.932,180.777L126.048,180.222L126.009,179.734L125.316,179.601L124.855,179.246L124.932,177.979L124.547,177.935L123.546,178.157L121.469,179.135L120.891,179.135L121.776,178.446L123.623,177.49L124.431,176.934L126.278,175.397L127.394,174.661L128.01,173.367L128.202,172.563L128.587,171.87L128.933,170.774L129.511,170.394L130.549,169.431L131.127,169.52L131.781,170.707L132.666,171.602L133.281,171.535L134.436,171.065L134.974,170.953L136.283,171.02L137.437,170.439L137.937,169.767L138.091,168.938L137.668,167.525L138.245,167.659L138.784,167.592L140.053,166.694L141.362,166.177L142.708,166.042L144.248,166.537ZM219.164,70.934L219.587,71.206L221.588,70.489L221.203,72.663L221.011,74.857L221.165,78.494L221.319,80.136L221.665,81.726L222.512,82.85L223.627,83.655L225.244,86.212L226.129,89.345L226.744,90.872L227.167,92.468L227.321,93.193L227.321,93.917L227.206,94.906L227.36,95.701L227.167,98.226L226.436,101.129L226.359,102.612L225.744,102.899L225.359,103.592L225.013,103.903L224.666,104.142L224.128,104.213L223.781,104.476L223.627,105.263L223.397,106.002L222.935,106.669L222.589,107.407L222.281,109.19L222.165,111.017L221.742,112.297L220.665,112.628L219.433,112.604L217.894,113.196L217.548,113.551L216.317,115.771L215.97,117.092L215.97,118.481L216.317,120.197L216.778,121.887L217.125,125.001L216.74,129.735L216.394,131.247L215.624,132.268L215.008,132.733L214.508,133.312L213.854,134.842L212.738,137.893L212.661,138.678L212.661,139.462L212.353,140.498L212.161,141.511L212.353,142.683L212.7,143.786L214.162,146.605L214.739,147.429L215.393,148.206L212.892,149.028L212.43,149.417L210.93,151.013L210.468,152.539L210.506,154.2L210.237,154.813L209.852,155.335L209.391,155.676L207.736,156.447L206.659,157.195L205.62,158.373L205.197,159.007L204.389,158.803L203.888,158.26L204.35,157.558L204.235,156.765L204.465,154.654L204.196,153.813L205.043,153.177L205.427,152.152L206.351,151.355L206.967,150.626L207.082,150.033L206.505,149.394L205.928,148.937L205.081,148.937L204.273,149.074L203.773,149.69L203.58,150.512L203.619,150.877L203.542,151.218L202.311,152.335L202.465,153.518L202.849,154.109L203.311,154.404L203.157,154.79L202.58,155.744L202.157,155.835L201.387,154.518L200.425,153.791L199.232,153.791L198.04,154.063L197.078,154.949L196.77,155.676L196.577,156.425L196.654,158.26L196.27,159.798L195.539,161.131L195.154,161.628L194.269,162.53L193.615,162.643L193.153,162.237L192.807,161.605L193.268,159.323L193.23,158.033L194.307,157.377L193.422,156.447L192.345,156.084L190.844,156.561L190.421,157.127L190.113,157.875L189.305,158.803L188.382,159.685L187.381,161.176L186.689,162.959L184.457,162.372L183.226,162.237L181.994,162.282L179.801,162.079L177.377,162.44L174.645,163.116L174.799,162.62L177.069,161.56L177.146,161.244L176.915,160.657L176.377,160.634L175.03,160.838L174.337,160.747L174.029,160.115L173.568,159.843L173.298,160.115L173.375,161.334L173.029,161.492L172.606,161.176L172.76,160.228L172.452,158.848L172.413,157.966L172.875,157.241L172.413,156.923L171.875,157.037L171.221,157.399L170.682,157.898L169.451,160.431L168.989,161.876L169.874,163.049L172.298,164.67L172.683,165.053L172.721,165.75L172.413,166.469L171.759,166.806L169.104,167.345L166.834,168.377L166.141,169.431L164.064,173.523L162.409,176.31L160.023,177.267L157.445,176.399L156.83,175.442L156.291,174.238L155.329,173.166L154.483,171.982L153.982,170.573L154.059,168.31L153.675,166.941L154.021,166.581L155.445,165.75L155.906,165.278L156.714,164.198L157.022,163.589L157.061,162.665L156.407,162.192L154.714,162.214L153.059,162.508L151.866,162.102L150.289,160.996L149.827,160.747L148.172,160.68L146.979,160.883L145.787,161.289L144.555,161.425L144.132,161.628L142.708,162.981L141.593,163.837L140.592,164.265L138.476,164.378L137.398,164.648L136.283,165.098L135.975,165.075L134.82,165.682L133.474,166.222L132.743,166.761L131.434,166.402L128.818,167.367L127.548,167.48L126.24,166.963L125.047,166.11L123.893,166.469L123.085,167.727L122.7,170.26L122.238,171.378L122.084,172.742L121.507,172.518L118.006,170.08L117.775,169.991L114.927,170.416L114.196,170.618L113.311,171.11L112.349,171.334L111.464,170.976L110.618,170.394L109.81,170.573L108.963,170.976L108.656,167.278L108.809,166.806L109.348,166.155L109.887,165.593L111.272,165.39L112.657,165.593L113.619,165.323L114.466,164.603L115.351,163.544L116.351,162.711L117.698,162.034L119.006,161.267L120.16,160.182L121.238,159.007L122.238,158.124L123.316,157.399L124.97,155.653L127.163,153.677L128.01,152.221L128.51,151.811L130.396,151.013L132.897,150.375L134.089,150.421L135.244,151.697L135.898,151.515L136.513,151.196L137.822,151.013L139.13,151.218L140.438,151.218L141.708,151.059L144.209,150.626L145.517,150.124L146.787,149.462L151.327,149.006L154.483,147.909L154.944,147.977L155.445,148.229L155.483,149.051L155.098,149.941L155.483,150.489L156.099,150.808L159.023,150.922L159.87,151.105L161.101,150.512L162.255,149.759L163.448,148.754L164.295,147.634L163.525,146.239L163.371,144.703L164.025,143.028L164.949,141.603L166.103,140.751L167.142,139.784L169.22,136.992L170.759,134.726L171.298,131.92L170.99,128.618L172.298,126.146L173.568,125.725L176.107,124.58L177.415,124.253L177.608,124.744L177.569,125.398L175.607,127.476L174.453,128.315L173.799,128.595L173.183,128.967L172.914,129.689L173.914,130.921L174.183,131.804L174.106,132.663L174.145,133.451L175.299,134.286L176.607,134.564L177.146,134.564L177.646,134.332L179.147,132.268L179.455,131.92L183.726,130.41L185.842,129.247L186.996,128.944L188.074,128.338L190.536,126.006L191.421,124.931L192.229,123.738L192.922,122.356L193.422,120.855L194.115,119.915L198.001,117.68L199.232,116.455L199.656,115.866L200.117,114.142L200.464,112.368L200.925,110.97L201.541,109.641L202.388,108.287L203.35,107.05L203.927,105.764L204.735,102.708L205.12,100.985L205.389,100.386L205.812,99.858L206.158,99.211L206.428,98.466L206.543,97.746L206.736,95.508L206.62,93.772L206.005,92.299L205.466,91.888L204.889,91.864L204.004,91.984L203.273,91.404L203.427,90.872L204.196,90.775L204.696,90.484L205.043,89.975L205.735,88.375L206.158,86.65L206.197,85.896L205.658,84.484L205.235,82.801L205.235,81.897L205.697,80.846L206.351,80.013L206.967,79.793L207.621,79.744L208.198,79.426L208.737,78.935L209.044,78.42L209.545,76.972L209.698,76.161L209.429,73.946L209.737,73.354L210.16,72.984L210.776,73.255L211.353,73.305L212.084,73.231L212.738,73.453L212.892,74.02L213.315,77.733L213.546,78.249L214.046,78.641L214.585,78.568L215.085,78.003L215.393,77.218L216.047,77.07L218.01,77.905L218.702,77.316L219.126,76.407L219.549,74.783L219.356,73.305L218.856,72.787L218.394,72.885L217.971,73.28L217.471,73.502L214.585,74.266L214.624,72.639L215.239,70.192L215.586,69.425L216.047,69.053L217.279,69.474L217.856,69.746ZM38.164,287.066L37.548,288.921L37.01,289.186L36.471,289.043L35.932,288.004L36.317,287.617L36.856,287.821L37.279,287.739L38.241,286.23L38.51,286.475ZM33.854,289.837L33.162,290L32.354,289.796L31.623,289.756L31.623,289.389L32.392,289.043L32.392,288.534L32.585,288.269L34.355,288.88L34.278,289.328ZM50.477,284.392L49.553,284.699L48.592,284.535L48.745,282.88L49.092,283.105L49.284,283.677L50.015,284.004ZM80.567,261.74L79.528,262.301L79.143,262.944L78.181,263.172L77.258,264.084L76.373,264.271L76.373,264.996L76.757,265.617L76.18,265.741L75.526,266.486L75.488,267.045L75.718,267.5L75.68,267.727L74.91,268.368L74.064,268.409L74.025,267.686L74.102,267.169L74.872,265.865L74.872,264.353L75.603,264.188L75.872,263.98L76.988,262.902L77.219,262.446L76.603,262.01L76.642,261.491L76.796,261.263L77.719,261.429L78.104,261.823L78.296,261.865L78.835,261.574L79.066,261.055L80.105,260.016L80.528,258.997L81.336,259.85L81.105,260.93ZM88.455,248.911L87.993,249.142L87.416,248.827L87.223,247.443L87.493,246.772L87.954,246.625L88.378,247.821L88.647,248.324ZM93.303,243.008L92.379,243.997L91.417,243.113L90.225,242.503L90.802,242.355L91.11,242.123L91.148,241.744L91.918,241.175L93.457,240.753L93.918,240.711L94.457,240.31L94.65,239.951L94.88,239.761L95.842,239.255L96.112,239.846L96.073,240.289L95.342,240.542L94.611,241.154L93.957,241.913L93.341,242.229L93.149,242.461ZM91.918,244.271L91.995,244.544L90.956,244.313L90.532,243.198L91.225,243.408L91.456,243.787ZM204.35,182.771L204.158,182.904L203.657,182.483L203.58,182.107L203.657,181.885L204.004,181.841L204.696,182.284Z" fill="none" stroke="currentColor" stroke-width="2" vector-effect="non-scaling-stroke" stroke-linejoin="round" stroke-linecap="round"/>
</svg>
