<svg viewBox="0 0 300 300" xmlns="http://www.w3.org/2000/svg">
  <path d="M240.525,100.982L241.494,101.363L243.378,101.883L244.563,102.507L245.209,102.68L246.716,101.398L249.031,101.433L251.023,101.606L252.046,101.814L253.284,102.229L254.845,102.541L255.437,101.918L256.353,100.149L256.676,99.907L256.945,99.733L258.075,99.594L259.152,99.733L259.637,100.045L260.121,101.467L261.413,101.987L263.674,104.271L265.02,105.17L265.343,105.55L264.913,106L265.074,106.587L265.882,107.311L266.958,107.587L268.197,107.484L268.843,107.76L269.273,108.174L269.381,108.76L269.381,109.139L269.596,110L270.565,111.17L271.642,111.892L272.234,112.683L273.203,115.326L273.634,116.799L273.472,118.237L272.773,119.674L271.319,121.484L271.696,122.234L272.019,123.223L271.911,123.973L272.934,126.254L273.419,127.681L273.042,128.021L272.773,128.462L274.657,129.548L276.864,130.498L277.833,130.667L280.417,130.227L282.086,130.159L283.755,131.006L286.124,133.14L288.708,135.877L289.246,136.721L289.462,137.092L290,137.733L289.462,137.733L288.6,137.126L286.555,135.438L285.478,136.181L284.563,137.429L283.594,142.176L282.786,142.68L281.332,142.647L279.61,142.512L278.425,142.747L278.102,143.05L278.264,143.553L278.641,144.325L278.856,145.298L278.964,146.103L279.556,146.84L280.417,147.543L280.471,148.245L280.31,149.249L280.148,149.984L279.933,150.418L280.31,151.587L281.225,152.955L281.817,153.455L281.602,156.052L281.925,157.215L282.194,158.81L282.086,161.43L282.248,162.06L282.517,162.291L283.378,162.391L284.186,162.622L284.509,163.053L284.455,163.384L283.432,164.574L283.324,165.434L283.001,166.656L282.678,167.349L281.763,168.701L281.171,170.051L280.902,171.171L281.117,171.697L282.786,171.861L283.701,172.65L286.124,174.26L286.555,174.917L285.908,175.901L285.908,176.294L286.231,176.819L286.393,177.736L286.339,178.751L286.339,180.092L286.77,180.321L288.439,181.562L289.623,182.835L289.677,183.227L289.085,184.205L289.246,185.346L289.192,185.606L288.708,185.183L287.793,185.02L286.824,184.988L286.231,185.313L285.155,186.193L283.755,187.169L282.624,188.079L281.978,188.697L281.44,188.599L281.009,188.047L280.794,187.299L280.848,184.466L280.633,183.586L280.094,182.966L279.448,182.607L278.748,182.411L277.941,182.379L276.864,183.227L275.303,184.075L272.934,184.01L271.319,183.847L270.511,183.684L267.389,182.379L266.743,182.346L265.559,181.791L264.213,181.366L261.844,182.183L260.821,181.987L259.421,181.301L258.937,181.497L257.376,183.586L254.684,185.867L253.23,186.225L252.53,183.977L251.884,183.097L251.561,182.966L250.861,182.705L250.377,182.868L248.762,184.401L246.178,185.346L244.024,185.9L240.579,186.616L237.995,186.941L236.864,186.974L234.441,186.681L232.288,186.225L230.135,186.258L228.52,186.453L224.697,188.112L218.183,191.521L213.23,193.174L210.485,193.855L208.331,194.211L204.616,194.243L201.602,193.984L199.502,194.016L198.318,193.596L196.703,192.235L194.657,190.84L193.795,190.548L192.611,190.256L190.888,190.126L186.635,192.105L185.289,192.656L183.836,193.077L180.929,194.275L179.583,194.955L177.968,194.89L175.868,194.696L174.092,194.761L172.853,193.822L172.207,192.786L169.731,192.137L167.954,191.975L167.524,192.429L167.039,193.855L166.285,197.477L166.178,198.413L167.739,201.991L167.631,202.538L166.555,202.732L165.262,202.796L164.401,203.118L163.755,203.697L163.324,206.813L161.871,207.39L161.117,208.032L160.417,209.954L160.04,209.986L157.618,208.545L156.541,208.416L157.456,206.909L156.433,203.922L155.303,201.154L156.38,199.349L158.587,197.186L160.956,194.631L160.956,193.077L160.794,191.878L160.148,191.067L158.856,189.964L156.703,191.132L155.141,192.429L154.172,192.688L153.042,193.434L152.503,194.761L151.211,195.796L149.058,196.216L145.828,195.084L142.328,193.401L140.336,192.04L138.721,191.716L137.214,192.3L132.692,195.667L128.546,200.574L127.524,201.412L123.647,203.504L121.063,204.211L119.879,204.05L114.764,204.982L112.18,205.111L110.188,206.203L106.312,205.015L103.943,203.471L102.544,201.927L100.283,198.542L98.614,196.96L95.007,195.505L88.6,192.008L86.931,191.619L82.624,191.1L78.048,190.775L77.079,192.073L76.756,197.121L75.949,198.51L75.626,201.122L75.087,201.895L74.172,202.377L72.826,201.54L71.857,201.186L69.65,202.249L65.236,203.761L63.728,203.986L58.668,202.088L56.783,200.864L55.599,199.51L55.168,197.218L54.415,195.925L54.307,195.02L54.038,194.016L53.015,193.596L51.884,194.373L50.7,194.34L49.246,193.855L45.747,191.943L43.055,191.781L41.44,194.146L40.148,194.89L38.802,195.117L38.694,194.437L39.771,192.915L35.572,193.207L33.365,194.34L31.642,194.178L30.35,193.66L30.511,193.012L31.857,192.786L32.988,192.267L37.51,191.846L38.587,191.424L39.717,189.769L41.871,188.339L42.14,187.722L40.471,187.722L33.526,188.144L28.735,187.917L28.197,188.599L27.443,188.729L27.281,186.778L28.035,185.9L29.058,185.997L31.534,185.216L31.319,183.618L29.542,182.509L29.166,181.889L27.873,181.726L26.797,180.974L26.581,179.045L25.774,176.917L24.536,175.901L24.697,175.343L26.904,174.621L27.335,171.664L27.012,169.821L25.935,169.689L22.705,168.239L21.736,168.371L20.659,166.788L18.775,165.665L17.86,166.061L17.268,166.59L16.406,166.358L15.007,165.368L13.553,164.806L12.907,164.145L13.715,162.391L14.791,162.424L15.007,161.032L14.145,158.71L14.253,157.515L15.168,157.215L16.245,157.415L17.376,158.81L17.699,160.17L17.483,161.463L18.183,162.722L18.668,163.053L18.991,161.695L19.475,161.463L20.121,162.026L21.467,162.324L25.02,161.53L25.666,160.834L23.082,160.9L22.167,160.27L21.09,158.81L20.498,157.481L20.336,156.85L20.013,155.885L20.39,155.386L22.167,154.621L23.728,152.488L23.082,151.887L22.328,151.587L21.521,151.787L20.767,151.053L20.659,150.051L21.306,149.215L21.359,148.078L19.314,145.298L18.775,144.694L19.206,143.755L20.767,142.244L22.221,140.327L22.005,139.687L20.929,139.451L15.814,140.259L13.822,140.966L10.269,141.302L10,140.259L10.108,139.317L10.915,137.632L10.808,133.41L11.292,131.142L13.284,130.464L15.707,127.07L19.637,123.087L23.728,123.189L25.343,122.064L27.766,121.996L28.25,122.814L28.52,123.564L30.673,124.688L34.441,124.518L35.357,124.075L36.218,123.462L34.495,121.518L35.034,120.938L36.595,120.869L38.318,121.347L38.425,121.791L37.941,122.405L37.402,123.496L37.941,123.701L42.786,123.053L47.9,123.564L49.515,123.292L53.553,123.292L54.253,122.644L53.069,121.791L51.884,121.484L51.077,121.074L50.269,120.459L52.799,118.579L54.253,118.203L61.036,117.039L66.097,116.457L66.151,116.011L65.397,116.011L58.883,115.051L57.322,114.297L55.168,112.511L54.684,111.995L54.145,111.135L54.468,109.242L54.845,107.76L55.653,106.897L58.237,106.759L67.174,108.277L73.58,107.346L80.525,109.586L87.147,109.139L88.546,108.139L90.215,104.928L99.583,99.525L102.867,96.745L106.42,95.179L112.45,93.471L117.51,91.202L118.964,90.958L131.077,92.04L139.421,92.18L143.244,90.014L145.505,90.748L145.289,91.517L144.859,92.18L145.02,93.506L146.312,95.422L147.604,96.745L151.534,98.657L156.918,97.058L157.779,97.232L158.91,97.684L160.794,102.784L162.301,104.583L164.186,105.827L165.747,106.069L166.878,104.79L167.793,104.271L169.731,104.064L172.961,105.792L174.092,107.622L179.529,109.001L184.536,109.69L186.689,111.239L193.742,112.751L196.38,112.511L200.794,110.929L209.354,109.173L215.061,111.617L216.622,111.926L217.968,111.72L219.852,112.408L221.898,112.03L228.197,109.139L230.188,107.484L232.288,107.07L234.118,106.069L239.071,102.853Z" fill="none" stroke="currentColor" stroke-width="2" vector-effect="non-scaling-stroke" stroke-linejoin="round" stroke-linecap="round"/>
</svg>
